<svg width="65" height="52" viewBox="0 0 65 52" fill="none" xmlns="http://www.w3.org/2000/svg">
<path d="M21.6322 4.49319C18.6145 6.97305 16.133 9.04777 16.1081 9.12143C16.0831 9.19509 18.5646 11.3066 21.6198 13.811L25.5344 17.0241C26.1871 17.5598 27.1689 17.0955 27.1689 16.2511V15.7262V13.0867H27.4681C27.6302 13.0867 28.2537 13.2218 28.8398 13.3936C37.3443 15.8244 41.0478 25.4492 36.2719 32.7046C34.4637 35.4545 31.8201 37.3082 28.2911 38.2904C27.3684 38.5482 27.2063 38.5604 14.1129 38.5973L1.85464 38.6313C1.30345 38.6329 0.857422 39.0801 0.857422 39.6313V42.3171V44.9964C0.857422 45.5501 1.30736 45.9984 1.86106 45.9964L14.3623 45.9509C28.9146 45.9018 28.2413 45.9263 30.7602 45.2511C37.681 43.3851 43.23 37.9221 45.1255 31.1209C47.4075 22.9202 44.2401 14.1548 37.2071 9.21964C34.6508 7.42727 31.3463 6.12597 28.3036 5.72084L27.1689 5.56125L27.1439 2.78676L27.1344 2.0781C27.1231 1.24008 26.1479 0.786827 25.5 1.31855L21.6322 4.49319Z" fill="#F2D30F"/>
<path d="M10.8885 10.9297C7.86872 13.9448 5.88936 17.7547 5.07732 22.0691C4.74742 23.8479 4.79818 27.5947 5.16613 29.323C5.48334 30.8495 6.10506 32.7671 6.7014 34.0791L6.85363 34.4139C7.01592 34.7708 7.37185 35 7.76396 35H11.7386H15.0635C15.5785 35 15.8607 34.4002 15.5324 34.0034C12.0685 29.7646 11.4468 24.3147 13.8956 19.5839C14.7203 17.9817 15.672 16.7959 17.1565 15.4839C17.5752 15.118 17.8924 14.8026 17.8543 14.7774C17.7021 14.6512 12.3223 10.2106 12.1446 10.0592C11.9543 9.90783 11.8147 9.99614 10.8885 10.9297Z" fill="#F2D30F"/>
<path d="M53.799 35.8665V38.733H50.0389H46.8286C46.493 38.733 46.1798 38.9013 45.9947 39.1811L45.8967 39.3291C44.2941 41.739 42.3216 43.7937 39.819 45.6328C39.5135 45.8585 39.6731 46.3431 40.0529 46.3431H46.3282H53.799L53.8236 49.1716L53.8606 52L59.3343 47.3578C62.3546 44.8084 64.8326 42.6522 64.8572 42.5761C64.8819 42.5 62.5889 40.4706 59.7534 38.0734C56.918 35.6636 54.4154 33.5454 54.2058 33.3551C54.0471 33.2166 53.799 33.3293 53.799 33.54V35.8665Z" fill="#F2D30F"/>
</svg>
