<svg width="50" height="64" viewBox="0 0 50 64" fill="none" xmlns="http://www.w3.org/2000/svg">
<path d="M17.1849 0.20005C16.9727 0.300076 15.7243 1.5629 14.4135 2.98827L12.0165 5.58895L8.87051 7.05183C7.13522 7.86454 5.56222 8.66475 5.37496 8.85229C5.1877 9.02734 4.97547 9.33992 4.91305 9.55247C4.83814 9.76503 4.61343 11.453 4.38871 13.3034L4.00171 16.6668L2.26641 19.8051C1.30514 21.5181 0.518635 23.0435 0.506151 23.1935C0.456215 23.8937 0.680929 24.4188 2.2789 27.3196L4.01419 30.4454L4.41368 33.8838C4.6384 35.8718 4.88808 37.4972 4.98795 37.7348C5.10031 37.9598 5.32502 38.2474 5.51228 38.3724C5.68706 38.4975 7.22261 39.2477 8.92045 40.0354L11.9915 41.4607L14.4509 44.1239C15.7992 45.5868 17.0476 46.8246 17.2224 46.8997C17.7467 47.0997 18.2211 47.0372 21.7042 46.3745L25.0874 45.7244L28.3208 46.362C31.8038 47.0622 32.3032 47.1122 32.865 46.8246C33.0647 46.7246 34.3007 45.4743 35.6115 44.0489L37.996 41.4733L41.0796 40.0354C42.7774 39.2477 44.3129 38.4975 44.4877 38.3724C44.675 38.2474 44.8997 37.9598 45.0121 37.7348C45.1119 37.4972 45.3616 35.8718 45.5863 33.8838L45.9858 30.4454L47.7211 27.3196C49.3191 24.4188 49.5438 23.8937 49.4939 23.1935C49.4814 23.0435 48.6949 21.5181 47.7336 19.8051L45.9983 16.6668L45.6113 13.3034C45.3866 11.453 45.1619 9.76503 45.087 9.55247C45.0245 9.33992 44.8123 9.02734 44.625 8.83979C44.4378 8.66475 42.8648 7.86454 41.1295 7.05183L37.971 5.57644L35.5865 2.97577C33.277 0.475121 32.7277 0 32.091 0C31.9287 0 30.2683 0.300076 28.4207 0.675175L25.0499 1.35035L21.6168 0.675175C19.7317 0.300076 18.0588 0 17.8841 0C17.7093 0 17.3972 0.0875206 17.1849 0.20005ZM28.171 10.4277C30.6054 11.0529 32.7526 12.2657 34.4754 13.9911C40.5677 20.0927 39.4566 30.1953 32.1784 34.909C31.0049 35.6717 29.719 36.2219 28.121 36.672C26.7353 37.0471 23.2397 37.0471 21.8415 36.6595C17.7967 35.5467 14.6631 33.0086 12.9528 29.4576C9.27001 21.8432 13.2524 12.9158 21.3796 10.5527C21.9664 10.3777 22.8402 10.1901 23.3146 10.1276C24.6629 9.95258 26.8352 10.0901 28.171 10.4277Z" fill="#F2D30F"/>
<path d="M23.5827 14.1039C21.6489 14.3853 19.8252 15.3275 18.3197 16.8326C16.7286 18.4233 15.8718 20.1609 15.5781 22.4368C14.9661 26.9888 18.0137 31.504 22.5546 32.7644C23.6562 33.0703 26.3366 33.0825 27.4504 32.7766C30.4736 31.9445 32.9827 29.5707 33.9986 26.5727C35.1981 23.0364 34.2067 19.1452 31.4405 16.5756C30.3634 15.5722 29.4577 15.0216 28.1848 14.5688C26.6549 14.0304 25.1739 13.8714 23.5827 14.1039ZM29.6046 19.9773C30.2533 20.5891 30.4491 21.4579 30.0942 22.1432C29.8739 22.5347 24.9291 27.466 24.5497 27.6618C24.1702 27.8576 23.4603 27.8331 23.0075 27.6006C22.4689 27.3314 20.2658 25.1411 19.9721 24.5904C19.1765 23.0487 20.633 21.4335 22.2731 22.0575C22.4567 22.1187 22.8973 22.4491 23.2278 22.7795L23.8398 23.3913L25.4921 21.7271C26.3978 20.8094 27.3158 19.9529 27.5116 19.8183C28.0379 19.4756 29.164 19.5613 29.6046 19.9773Z" fill="#F2D30F"/>
<path d="M8.54122 44.1472C8.21793 45.0307 4.5 58.2216 4.5 58.467C4.51243 59.2892 5.45746 60.1972 6.34031 60.1972C6.56413 60.1972 8.34227 59.645 10.2945 58.9579C12.2467 58.283 13.8632 57.7431 13.8756 57.7676C15.2683 59.5469 18.5013 63.4244 18.7375 63.6084C19.4463 64.1606 20.4286 64.0993 21.0877 63.4612C21.4607 63.0808 21.6224 62.6268 23.214 57.0805C24.1714 53.8042 24.9797 51.117 25.017 51.117C25.0543 51.117 25.8625 53.8042 26.82 57.0805C28.2624 62.0746 28.5857 63.0931 28.8717 63.3876C29.4934 64.0502 30.3265 64.1851 31.0975 63.7434C31.371 63.5839 32.2663 62.59 33.4725 61.1052C34.5294 59.7923 35.5988 58.5039 35.835 58.2339L36.2702 57.7431L39.7892 58.9701C41.729 59.645 43.4823 60.1972 43.6936 60.1972C44.5516 60.1972 45.3599 59.5223 45.4967 58.6756C45.5464 58.3689 45.049 56.4915 43.5444 51.2274C42.4253 47.3499 41.4803 44.135 41.4306 44.0859C41.3808 44.0368 40.585 44.3436 39.6524 44.773L37.9613 45.5584L35.5863 48.0984C34.2683 49.485 33.0497 50.712 32.8507 50.8102C32.3036 51.0924 31.9181 51.0556 28.3494 50.3562L25.017 49.7058L21.6845 50.3562C18.2775 51.0188 17.7925 51.0801 17.2703 50.8838C17.0962 50.8102 15.8527 49.5831 14.5098 48.1475L12.0478 45.5338L10.3815 44.7608C9.46138 44.3436 8.678 44 8.65313 44C8.61583 44 8.56609 44.0736 8.54122 44.1472Z" fill="#F2D30F"/>
</svg>
