<svg width="64" height="64" viewBox="0 0 64 64" fill="none" xmlns="http://www.w3.org/2000/svg">
<path d="M38.9583 0.0724678C34.3291 0.665745 30.0657 2.57179 26.5969 5.6139C23.8724 8.01225 21.501 11.4835 20.328 14.8033L20 15.7248H21.6902C30.8604 15.7248 38.8826 20.0292 44.0038 27.6913C45.0507 29.2691 46.2742 31.8063 46.9175 33.7755C47.851 36.6283 48.2546 39.2033 48.2546 42.2833V44L49.1754 43.6718C52.5306 42.4726 55.9615 40.1374 58.3581 37.3982C63.3531 31.7053 65.1569 24.1064 63.2648 16.7346C62.2053 12.5817 59.6826 8.50454 56.3904 5.60128C53.1991 2.799 49.3646 0.968693 45.1012 0.236565C43.7894 0.0219765 40.1945 -0.0790062 38.9583 0.0724678Z" fill="#F2D30F"/>
<path d="M19.6421 19.031L19.1301 19.0827L19.0302 20.2082C18.9552 21.2561 19.0302 24.8526 19.1425 24.9691C19.1675 24.9949 23.2011 25.0079 28.0962 24.9949L37 24.9561L36.0759 24.1928C33.0789 21.7089 29.9569 20.1824 26.298 19.3803C25.0742 19.1215 24.3374 19.0439 22.4768 19.018C21.203 18.9922 19.9293 18.9922 19.6421 19.031Z" fill="#F2D30F"/>
<path d="M14.3712 20.5052C7.33297 23.1575 1.92184 29.5863 0.420852 37.0633C-0.386402 41.1302 -0.020615 45.6771 1.41731 49.4156C4.41929 57.1705 10.9908 62.5004 19.2148 63.8266C20.7662 64.0792 24.6133 64.0539 26.2152 63.7634C34.2499 62.3488 40.998 56.7284 43.6721 49.1882L44 48.2789H42.1963C38.0339 48.2662 34.2373 47.4074 30.592 45.6392C25.2187 43.0374 20.7284 38.4779 18.1931 33.0469C17.1588 30.8367 16.3137 27.9191 15.9227 25.2289C15.8722 24.8752 15.7965 23.5617 15.7587 22.2987L15.683 20L14.3712 20.5052Z" fill="#F2D30F"/>
<path d="M20.3219 29.9375C20.6808 31.0375 21.6959 33.1125 22.4015 34.225L22.8967 35H32.9483H43L42.6781 34.0625C42.3192 32.9625 41.3041 30.8875 40.5985 29.775L40.1033 29H30.0517H20L20.3219 29.9375Z" fill="#F2D30F"/>
<path d="M27.5491 39.4774C30.4317 42.0839 34.0505 43.8774 38.0313 44.6903C39.2542 44.9484 39.8532 45 42.1118 45C43.5594 45 44.7823 44.9613 44.8322 44.9097C44.9695 44.7677 45.0568 41.5806 44.957 40.2516L44.8696 39H35.9348H27L27.5491 39.4774Z" fill="#F2D30F"/>
</svg>
