<svg width="64" height="64" viewBox="0 0 64 64" fill="none" xmlns="http://www.w3.org/2000/svg">
<path d="M30 3V6H32H34V3V0H32H30V3Z" fill="#F2D30F"/>
<path d="M19.4406 4.04386C18.7116 4.62105 18.0636 5.13684 18.0057 5.19825C17.9363 5.27193 18.5033 6.20526 19.4985 7.65439C20.378 8.94386 21.1186 10 21.1533 10C21.3269 9.98772 24 7.81404 24 7.69123C24 7.53158 20.9334 3 20.8293 3C20.7946 3.01228 20.1697 3.47895 19.4406 4.04386Z" fill="#F2D30F"/>
<path d="M40.7867 5.25346C39.8 6.52978 39 7.63091 39 7.70599C39 7.89368 42.2933 10.1085 42.4 9.99585C42.7333 9.63298 46 5.31603 46 5.24095C45.9867 5.14085 43.0267 3.10125 42.7333 3.00114C42.64 2.96361 41.8667 3.85202 40.7867 5.25346Z" fill="#F2D30F"/>
<path d="M29.955 11.183C24.8488 12.1094 20.9596 16.7789 20.9596 21.9993C20.9596 27.2196 24.8739 31.9267 29.955 32.8156C30.9085 32.9783 30.8332 32.9908 27.1071 33.0409C23.0924 33.1035 22.9042 33.1285 21.1855 33.767C20.2194 34.13 18.7892 35.0689 17.911 35.9578C17.0328 36.8091 16.0542 38.2613 15.6904 39.2502C14.9627 41.1656 15.0003 40.5647 15.0003 52.1321C15.0003 62.698 15.0003 62.7982 15.2638 63.1362C15.4018 63.324 15.6778 63.5994 15.866 63.7371C16.2047 64 16.2424 64 32 64C47.7576 64 47.7953 64 48.134 63.7371C48.3222 63.5994 48.5982 63.324 48.7362 63.1362C48.9997 62.7982 48.9997 62.698 48.9997 52.1321C48.9997 40.5647 49.0373 41.1656 48.3096 39.2502C47.9458 38.2863 47.0049 36.8591 46.1141 35.9828C45.261 35.1065 43.8057 34.13 42.8146 33.767C41.0958 33.1285 40.9076 33.1035 36.8929 33.0409C33.1793 32.9908 33.0915 32.9783 34.045 32.8156C39.377 31.8766 43.3038 26.8816 43.0027 21.4359C42.6138 14.7383 36.5667 9.9937 29.955 11.183Z" fill="#F2D30F"/>
<path d="M8.60963 16.1332C7.48873 16.3332 6.04037 17.1333 5.10839 18.046C1.68271 21.4089 2.63989 27.1596 6.95976 29.2349C7.52651 29.4974 8.26958 29.7724 8.60963 29.8349C9.126 29.935 8.8993 29.96 7.28722 29.9725C5.15877 29.985 4.32754 30.135 3.23182 30.6851C1.77088 31.4227 0.461059 33.1354 0.108416 34.7731C0.0202549 35.2106 -0.0175282 37.5984 0.00766054 42.074C0.0454437 48.5623 0.0454437 48.7248 0.309926 49.0624C0.448464 49.2499 0.725541 49.5249 0.914457 49.6625C1.25451 49.9125 1.43083 49.925 7.16127 49.9625L13.0554 50L13.1184 45.5244C13.1688 40.7113 13.2066 40.4113 13.9119 38.6236C14.7305 36.5858 16.3426 34.523 18.0932 33.2979C18.5844 32.9478 18.9874 32.6103 19 32.5353C19 32.2978 17.5642 31.0226 16.8841 30.6851C15.7884 30.135 14.9572 29.985 12.8287 29.9725C11.2167 29.96 10.99 29.935 11.5063 29.8349C11.859 29.7724 12.6021 29.4974 13.1688 29.2224C14.5668 28.5598 15.6751 27.4471 16.3678 26.047C18.9118 20.8213 14.403 15.0456 8.60963 16.1332Z" fill="#F2D30F"/>
<path d="M52.4955 16.1332C52.1554 16.1957 51.4121 16.4708 50.8452 16.7333C46.5243 18.8086 45.5669 24.5593 48.9934 27.9222C49.9256 28.8348 51.3743 29.6349 52.4955 29.8349C53.012 29.935 52.7852 29.96 51.1728 29.9725C49.0438 29.985 48.2124 30.135 47.1164 30.6851C46.4487 31.0226 45 32.2853 45 32.5353C45 32.6103 45.2645 32.8353 45.6047 33.0479C45.9322 33.2479 46.7384 33.948 47.3935 34.6106C49.0186 36.2358 49.9508 37.836 50.5681 40.0862C50.8074 40.9614 50.8326 41.4614 50.883 45.5244L50.946 50L56.8416 49.9625C62.5734 49.925 62.7498 49.9125 63.0899 49.6625C63.2789 49.5249 63.556 49.2499 63.6946 49.0624C63.9592 48.7248 63.9592 48.5623 63.997 42.149C64.0096 38.011 63.9844 35.3231 63.8962 34.8856C63.5938 33.2354 62.3467 31.5227 60.8854 30.7476C59.7264 30.135 58.9076 29.985 56.7156 29.9725C55.1032 29.96 54.8764 29.935 55.3929 29.8349C55.7456 29.7724 56.4889 29.4974 57.0558 29.2224C58.4541 28.5598 59.5627 27.4471 60.2555 26.047C62.8002 20.8213 58.2903 15.0456 52.4955 16.1332Z" fill="#F2D30F"/>
</svg>
