<svg width="64" height="64" viewBox="0 0 64 64" fill="none" xmlns="http://www.w3.org/2000/svg">
<path d="M21.8319 0.138203C12.3069 1.3507 4.3069 7.9382 1.3319 17.0257C-0.380605 22.2257 -0.330605 27.6882 1.4694 32.9507C4.4569 41.7007 12.2944 48.1132 21.5444 49.3757C23.1694 49.6007 26.2819 49.6382 27.8194 49.4382C31.2694 49.0132 34.8194 47.8132 37.5944 46.1257L38.3444 45.6632L47.1819 54.4757C57.1569 64.4382 56.5069 63.8882 58.4444 63.8757C59.9444 63.8757 60.4194 63.6257 62.0319 62.0507C63.6944 60.4132 63.9944 59.8382 63.9944 58.3257C63.9944 56.3757 64.5569 57.0382 54.5944 47.0632L45.7819 38.2257L46.2319 37.5007C49.3069 32.3882 50.4069 25.9882 49.2444 20.0132C48.5569 16.4882 46.9694 12.8882 44.8569 10.0132C43.8319 8.6257 41.1069 5.8757 39.7569 4.8757C36.6069 2.5507 33.0194 1.0007 29.0694 0.313202C27.1569 -0.0242958 23.7694 -0.0992966 21.8319 0.138203ZM28.5069 7.2007C35.5944 8.6882 40.9069 14.0007 42.5069 21.2007C42.6319 21.7507 42.7444 22.9882 42.7819 24.2007C42.8319 25.9257 42.8069 26.5007 42.5944 27.7632C42.0069 31.1757 40.4444 34.4007 38.2069 36.8257L37.4569 37.6382L37.4444 31.0382V24.4507H34.5694H31.6944V32.9382V41.4132L31.1569 41.6257C30.5694 41.8507 28.2569 42.4507 27.9944 42.4507C27.8444 42.4507 27.8194 39.9632 27.8194 26.7007V10.9507H24.9444H22.0694V26.7007C22.0694 41.6132 22.0569 42.4507 21.8569 42.4507C21.4944 42.4507 20.0819 42.0882 19.0444 41.7507L18.0694 41.4257V29.8132V18.2007H15.1944H12.3194L12.2944 27.9132L12.2569 37.6382L11.3694 36.5757C9.1569 33.9382 7.9069 31.3257 7.2444 28.0132C6.9069 26.3257 6.9319 22.9507 7.2944 21.2382C8.0944 17.5132 9.8444 14.3757 12.5819 11.7757C15.3944 9.1007 18.7444 7.5007 22.6944 6.9507C23.9944 6.7757 27.0819 6.9007 28.5069 7.2007Z" fill="#F2D30F"/>
</svg>
