<svg width="64" height="64" viewBox="0 0 64 64" fill="none" xmlns="http://www.w3.org/2000/svg">
<path d="M13.9853 0.239616C13.2021 0.668232 13 1.22291 13 2.97519C13.0126 7.07225 14.1621 10.8037 16.5368 14.3335C17.7368 16.1362 17.0421 15.9975 25 15.9975C32.9579 15.9975 32.2632 16.1362 33.4632 14.3335C35.8379 10.7911 36.9874 7.07225 37 2.91216C37 1.18509 36.7979 0.655625 35.9642 0.22701C35.4968 -0.0125103 35.2947 -0.0377235 34.3979 0.0379152C32.4021 0.189191 29.8758 0.995996 26.7305 2.48354L25 3.30296L23.2568 2.48354C20.0989 0.970783 17.5221 0.163979 15.5263 0.0379152C14.6042 -0.0125103 14.3895 0.012702 13.9853 0.239616Z" fill="#F2D30F"/>
<path d="M16.7143 20.248C16.0329 20.6076 11.5911 25.3441 9.19352 28.2579C6.5562 31.4817 4.82743 34.0855 3.21223 37.2969C1.57179 40.5455 0.75157 42.9262 0.234201 45.9764C-0.0434121 47.5387 -0.0812684 51.3452 0.158488 52.424C1.53393 58.636 6.39216 63.0749 12.7142 63.8933C13.4082 63.9801 17.7112 64.0173 25.8629 63.9925L37.9769 63.9429L39.2388 63.6205C39.9328 63.4345 40.7278 63.1989 41.0054 63.0749C41.283 62.9633 41.649 62.8269 41.813 62.7649C42.1033 62.6533 42.0906 62.6285 41.2957 61.8102C39.2388 59.6899 37.6488 57.0613 36.652 54.1351C35.6425 51.1221 35.5163 49.9441 35.5163 43.1246C35.5163 38.6732 35.5541 37.5325 35.7055 36.9497C36.2355 34.9411 37.6993 33.5772 39.8319 33.0936C41.018 32.8208 41.7373 32.4612 42.3935 31.8041C43.3273 30.8741 43.3904 31.0353 41.0811 28.1835C38.8476 25.4309 34.2796 20.5828 33.5982 20.2356C33.1439 20.0124 32.7654 20 25.1436 20C17.585 20.0124 17.1307 20.0248 16.7143 20.248ZM26.0396 29.8698C26.4434 30.1922 26.6831 30.8121 26.6831 31.4941C26.6831 31.8785 26.721 31.9033 27.4529 32.1016C28.3993 32.362 29.6233 33.1308 29.964 33.6639C30.5192 34.5567 30.1281 35.6726 29.1564 35.995C28.6012 36.1686 28.1343 36.0446 27.4529 35.5362C27.15 35.313 26.8472 35.1271 26.7841 35.1271C26.7336 35.1271 26.6957 36.305 26.7084 37.7433L26.7462 40.3471L27.6422 40.6943C29.2952 41.3267 30.3173 42.2318 31.0114 43.6825C31.3395 44.3397 31.4152 44.6745 31.453 45.592C31.5287 46.9559 31.3395 47.8239 30.7464 48.9522C30.1028 50.1425 29.0933 51.1345 27.9324 51.68C27.4276 51.9156 26.9355 52.114 26.8472 52.114C26.7336 52.114 26.6831 52.3124 26.6831 52.6968C26.6831 54.1227 26.1279 54.8418 25.0175 54.8418C24.4622 54.8418 24.336 54.7922 23.9575 54.4203C23.5537 54.0235 23.5284 53.9491 23.5284 53.1803C23.5284 52.3868 23.5158 52.362 23.1877 52.3C21.9385 52.0644 21.4716 51.9032 20.6261 51.4816C19.1497 50.7253 18.8595 50.4029 18.8595 49.5474C18.8595 49.1134 18.9352 48.9274 19.2759 48.5802C19.9321 47.8735 20.3737 47.8735 21.7744 48.5678C22.4054 48.8778 23.0615 49.1382 23.2256 49.1382H23.5284V45.8028V42.4674L22.4432 41.8722C20.9794 41.0663 20.3359 40.4835 19.8564 39.5164C19.5283 38.8716 19.44 38.4996 19.3895 37.7309C19.2381 35.0899 20.7145 32.9696 23.3139 32.114C23.4906 32.052 23.5284 31.8909 23.5284 31.2089C23.5284 30.4402 23.5537 30.3658 23.9575 29.969C24.336 29.597 24.4622 29.5474 25.0175 29.5474C25.5222 29.5474 25.7367 29.6218 26.0396 29.8698Z" fill="#F2D30F"/>
<path d="M22.5862 36.2C22.0596 36.7111 21.8339 37.8333 22.1348 38.3667C22.2853 38.6222 22.7367 38.9889 22.9122 39C22.9624 39 23 38.3222 23 37.5C23 36.6778 22.9498 36 22.8997 36C22.837 36 22.6991 36.0889 22.5862 36.2Z" fill="#F2D30F"/>
<path d="M26 46.5C26 47.9146 26.0615 49 26.1383 49C26.4303 49 27.6445 47.7805 27.8136 47.3171C28.2746 46.122 27.8597 44.9024 26.7992 44.3171C26.4764 44.1463 26.1691 44 26.1076 44C26.0461 44 26 45.122 26 46.5Z" fill="#F2D30F"/>
<path d="M46.6417 32.0758C46.5666 32.1006 46.2415 32.5088 45.9413 32.9789C45.6287 33.4489 45.1785 34.0551 44.9159 34.3396C43.9029 35.4405 42.2146 36.393 40.7013 36.7023C39.8384 36.8878 39.4132 37.1476 39.1631 37.6548C38.988 38.0135 38.9755 38.7557 39.0255 43.9635C39.0756 49.4187 39.0881 49.9507 39.3382 51.0021C40.7138 56.915 44.6157 61.4672 50.1809 63.6567C51.3564 64.1144 51.6316 64.1144 52.8071 63.6567C58.86 61.2817 63.0746 55.913 63.8624 49.5548C63.9375 48.9734 64 46.1901 64 43.2708C64 37.5434 63.9875 37.4445 63.2747 37.0363C63.0871 36.9249 62.6368 36.7765 62.2867 36.7023C60.7735 36.393 59.0851 35.4405 58.0722 34.3396C57.8095 34.0551 57.3593 33.4489 57.0592 32.9789C56.7465 32.5212 56.4089 32.113 56.2963 32.0635C56.0587 31.9769 46.8793 31.9769 46.6417 32.0758ZM57.8721 43.0358C58.5599 43.5058 58.81 44.4583 58.4849 45.3119C58.3223 45.7448 51.5065 52.5484 50.7562 53.0308C50.1559 53.4143 49.6306 53.4761 49.0303 53.2535C48.6301 53.105 44.8033 49.4064 44.5407 48.9116C44.2906 48.4291 44.3156 47.588 44.6157 47.1055C45.0909 46.3386 46.0664 46.017 46.9293 46.3386C47.1044 46.4004 47.8172 46.9942 48.5051 47.6622L49.7557 48.8621L52.7821 45.8809C54.9582 43.7285 55.9086 42.8749 56.1838 42.8131C56.3964 42.7636 56.6215 42.7141 56.684 42.7018C56.9091 42.6399 57.5844 42.8378 57.8721 43.0358Z" fill="#F2D30F"/>
</svg>
