<svg width="697" height="63" viewBox="0 0 697 63" fill="none" xmlns="http://www.w3.org/2000/svg">
<g clip-path="url(#clip0_114_1109)">
<path d="M0.87207 0H696.872V61C696.872 62.1046 695.977 63 694.872 63H2.87205C1.76748 63 0.87207 62.1046 0.87207 61V0Z" fill="#F2D30F"/>
<path d="M0.87207 0H16.8721V63H2.87207C1.7675 63 0.87207 62.1046 0.87207 61V0Z" fill="#273566"/>
<path d="M35.6279 16.7179C35.515 16.7644 35.3424 16.9039 35.2427 17.0168C34.7646 17.5879 35.0502 18.5043 35.7674 18.6968L36.0595 18.7765V23V27.2234L35.7674 27.3031C34.831 27.5488 34.7447 28.9101 35.6412 29.282C35.9599 29.4215 63.7841 29.4215 64.1029 29.282C64.9994 28.9101 64.9131 27.5488 63.9767 27.3031L63.6845 27.2234V23V18.7765L63.9767 18.6968C64.9131 18.4511 64.9994 17.0898 64.1029 16.7179C63.7841 16.5851 35.9334 16.5851 35.6279 16.7179ZM44.0681 19.9851C44.1677 20.0582 44.3138 20.2043 44.3869 20.3039C44.5197 20.4832 44.5263 20.5629 44.5263 23C44.5263 25.4371 44.5197 25.5168 44.3869 25.6961C44.3138 25.7957 44.1677 25.9418 44.0681 26.0148C43.8888 26.1476 43.8091 26.1543 41.372 26.1543C38.9349 26.1543 38.8552 26.1476 38.6759 26.0148C38.5763 25.9418 38.4302 25.7957 38.3572 25.6961C38.2244 25.5234 38.2177 25.4172 38.1978 23.1793C38.1845 21.891 38.1978 20.7488 38.2177 20.6293C38.2642 20.3636 38.5431 20.025 38.8154 19.9054C38.9748 19.8324 39.5259 19.8191 41.4517 19.8324C43.7959 19.8457 43.8955 19.8523 44.0681 19.9851ZM52.5681 19.9851C52.6677 20.0582 52.8138 20.2043 52.8869 20.3039C53.0197 20.4832 53.0263 20.5629 53.0263 23C53.0263 25.4371 53.0197 25.5168 52.8869 25.6961C52.8138 25.7957 52.6677 25.9418 52.5681 26.0148C52.3888 26.1476 52.3091 26.1543 49.872 26.1543C47.4349 26.1543 47.3552 26.1476 47.1759 26.0148C47.0763 25.9418 46.9302 25.7957 46.8572 25.6961C46.7244 25.5234 46.7177 25.4172 46.6978 23.1793C46.6845 21.891 46.6978 20.7488 46.7177 20.6293C46.7642 20.3636 47.0431 20.025 47.3154 19.9054C47.4748 19.8324 48.0259 19.8191 49.9517 19.8324C52.2959 19.8457 52.3955 19.8523 52.5681 19.9851ZM61.0681 19.9851C61.1677 20.0582 61.3138 20.2043 61.3869 20.3039C61.5197 20.4832 61.5263 20.5629 61.5263 23C61.5263 25.4371 61.5197 25.5168 61.3869 25.6961C61.3138 25.7957 61.1677 25.9418 61.0681 26.0148C60.8888 26.1476 60.8091 26.1543 58.372 26.1543C55.9349 26.1543 55.8552 26.1476 55.6759 26.0148C55.5763 25.9418 55.4302 25.7957 55.3572 25.6961C55.2244 25.5234 55.2177 25.4172 55.1978 23.1793C55.1845 21.891 55.1978 20.7488 55.2177 20.6293C55.2642 20.3636 55.5431 20.025 55.8154 19.9054C55.9748 19.8324 56.5259 19.8191 58.4517 19.8324C60.7959 19.8457 60.8955 19.8523 61.0681 19.9851Z" fill="#273566"/>
<path d="M35.6279 33.7179C35.515 33.7644 35.3424 33.9039 35.2427 34.0168C34.7646 34.5879 35.0502 35.5043 35.7674 35.6968L36.0595 35.7765V40V44.2234L35.7674 44.3031C34.831 44.5488 34.7447 45.9101 35.6412 46.282C35.9599 46.4215 63.7841 46.4215 64.1029 46.282C64.9994 45.9101 64.9131 44.5488 63.9767 44.3031L63.6845 44.2234V40V35.7765L63.9767 35.6968C64.9131 35.4511 64.9994 34.0898 64.1029 33.7179C63.7841 33.5851 35.9334 33.5851 35.6279 33.7179ZM44.0681 36.9851C44.1677 37.0582 44.3138 37.2043 44.3869 37.3039C44.5197 37.4832 44.5263 37.5629 44.5263 40C44.5263 42.4371 44.5197 42.5168 44.3869 42.6961C44.3138 42.7957 44.1677 42.9418 44.0681 43.0148C43.8888 43.1476 43.8091 43.1543 41.372 43.1543C38.9349 43.1543 38.8552 43.1476 38.6759 43.0148C38.5763 42.9418 38.4302 42.7957 38.3572 42.6961C38.2244 42.5234 38.2177 42.4172 38.1978 40.1793C38.1845 38.891 38.1978 37.7488 38.2177 37.6293C38.2642 37.3636 38.5431 37.025 38.8154 36.9054C38.9748 36.8324 39.5259 36.8191 41.4517 36.8324C43.7959 36.8457 43.8955 36.8523 44.0681 36.9851ZM52.5681 36.9851C52.6677 37.0582 52.8138 37.2043 52.8869 37.3039C53.0197 37.4832 53.0263 37.5629 53.0263 40C53.0263 42.4371 53.0197 42.5168 52.8869 42.6961C52.8138 42.7957 52.6677 42.9418 52.5681 43.0148C52.3888 43.1476 52.3091 43.1543 49.872 43.1543C47.4349 43.1543 47.3552 43.1476 47.1759 43.0148C47.0763 42.9418 46.9302 42.7957 46.8572 42.6961C46.7244 42.5234 46.7177 42.4172 46.6978 40.1793C46.6845 38.891 46.6978 37.7488 46.7177 37.6293C46.7642 37.3636 47.0431 37.025 47.3154 36.9054C47.4748 36.8324 48.0259 36.8191 49.9517 36.8324C52.2959 36.8457 52.3955 36.8523 52.5681 36.9851ZM61.0681 36.9851C61.1677 37.0582 61.3138 37.2043 61.3869 37.3039C61.5197 37.4832 61.5263 37.5629 61.5263 40C61.5263 42.4371 61.5197 42.5168 61.3869 42.6961C61.3138 42.7957 61.1677 42.9418 61.0681 43.0148C60.8888 43.1476 60.8091 43.1543 58.372 43.1543C55.9349 43.1543 55.8552 43.1476 55.6759 43.0148C55.5763 42.9418 55.4302 42.7957 55.3572 42.6961C55.2244 42.5234 55.2177 42.4172 55.1978 40.1793C55.1845 38.891 55.1978 37.7488 55.2177 37.6293C55.2642 37.3636 55.5431 37.025 55.8154 36.9054C55.9748 36.8324 56.5259 36.8191 58.4517 36.8324C60.7959 36.8457 60.8955 36.8523 61.0681 36.9851Z" fill="#273566"/>
<path d="M86.6279 16.7179C86.515 16.7644 86.3424 16.9039 86.2427 17.0168C85.7646 17.5879 86.0502 18.5043 86.7674 18.6968L87.0595 18.7765V23V27.2234L86.7674 27.3031C85.831 27.5488 85.7447 28.9101 86.6412 29.282C86.9599 29.4215 114.784 29.4215 115.103 29.282C115.999 28.9101 115.913 27.5488 114.977 27.3031L114.685 27.2234V23V18.7765L114.977 18.6968C115.913 18.4511 115.999 17.0898 115.103 16.7179C114.784 16.5851 86.9334 16.5851 86.6279 16.7179ZM95.0681 19.9851C95.1677 20.0582 95.3138 20.2043 95.3869 20.3039C95.5197 20.4832 95.5263 20.5629 95.5263 23C95.5263 25.4371 95.5197 25.5168 95.3869 25.6961C95.3138 25.7957 95.1677 25.9418 95.0681 26.0148C94.8888 26.1476 94.8091 26.1543 92.372 26.1543C89.9349 26.1543 89.8552 26.1476 89.6759 26.0148C89.5763 25.9418 89.4302 25.7957 89.3572 25.6961C89.2244 25.5234 89.2177 25.4172 89.1978 23.1793C89.1845 21.891 89.1978 20.7488 89.2177 20.6293C89.2642 20.3636 89.5431 20.025 89.8154 19.9054C89.9748 19.8324 90.5259 19.8191 92.4517 19.8324C94.7959 19.8457 94.8955 19.8523 95.0681 19.9851ZM103.568 19.9851C103.668 20.0582 103.814 20.2043 103.887 20.3039C104.02 20.4832 104.026 20.5629 104.026 23C104.026 25.4371 104.02 25.5168 103.887 25.6961C103.814 25.7957 103.668 25.9418 103.568 26.0148C103.389 26.1476 103.309 26.1543 100.872 26.1543C98.4349 26.1543 98.3552 26.1476 98.1759 26.0148C98.0763 25.9418 97.9302 25.7957 97.8572 25.6961C97.7244 25.5234 97.7177 25.4172 97.6978 23.1793C97.6845 21.891 97.6978 20.7488 97.7177 20.6293C97.7642 20.3636 98.0431 20.025 98.3154 19.9054C98.4748 19.8324 99.0259 19.8191 100.952 19.8324C103.296 19.8457 103.395 19.8523 103.568 19.9851ZM112.068 19.9851C112.168 20.0582 112.314 20.2043 112.387 20.3039C112.52 20.4832 112.526 20.5629 112.526 23C112.526 25.4371 112.52 25.5168 112.387 25.6961C112.314 25.7957 112.168 25.9418 112.068 26.0148C111.889 26.1476 111.809 26.1543 109.372 26.1543C106.935 26.1543 106.855 26.1476 106.676 26.0148C106.576 25.9418 106.43 25.7957 106.357 25.6961C106.224 25.5234 106.218 25.4172 106.198 23.1793C106.185 21.891 106.198 20.7488 106.218 20.6293C106.264 20.3636 106.543 20.025 106.815 19.9054C106.975 19.8324 107.526 19.8191 109.452 19.8324C111.796 19.8457 111.895 19.8523 112.068 19.9851Z" fill="#273566"/>
<path d="M86.6279 33.7179C86.515 33.7644 86.3424 33.9039 86.2427 34.0168C85.7646 34.5879 86.0502 35.5043 86.7674 35.6968L87.0595 35.7765V40V44.2234L86.7674 44.3031C85.831 44.5488 85.7447 45.9101 86.6412 46.282C86.9599 46.4215 114.784 46.4215 115.103 46.282C115.999 45.9101 115.913 44.5488 114.977 44.3031L114.685 44.2234V40V35.7765L114.977 35.6968C115.913 35.4511 115.999 34.0898 115.103 33.7179C114.784 33.5851 86.9334 33.5851 86.6279 33.7179ZM95.0681 36.9851C95.1677 37.0582 95.3138 37.2043 95.3869 37.3039C95.5197 37.4832 95.5263 37.5629 95.5263 40C95.5263 42.4371 95.5197 42.5168 95.3869 42.6961C95.3138 42.7957 95.1677 42.9418 95.0681 43.0148C94.8888 43.1476 94.8091 43.1543 92.372 43.1543C89.9349 43.1543 89.8552 43.1476 89.6759 43.0148C89.5763 42.9418 89.4302 42.7957 89.3572 42.6961C89.2244 42.5234 89.2177 42.4172 89.1978 40.1793C89.1845 38.891 89.1978 37.7488 89.2177 37.6293C89.2642 37.3636 89.5431 37.025 89.8154 36.9054C89.9748 36.8324 90.5259 36.8191 92.4517 36.8324C94.7959 36.8457 94.8955 36.8523 95.0681 36.9851ZM103.568 36.9851C103.668 37.0582 103.814 37.2043 103.887 37.3039C104.02 37.4832 104.026 37.5629 104.026 40C104.026 42.4371 104.02 42.5168 103.887 42.6961C103.814 42.7957 103.668 42.9418 103.568 43.0148C103.389 43.1476 103.309 43.1543 100.872 43.1543C98.4349 43.1543 98.3552 43.1476 98.1759 43.0148C98.0763 42.9418 97.9302 42.7957 97.8572 42.6961C97.7244 42.5234 97.7177 42.4172 97.6978 40.1793C97.6845 38.891 97.6978 37.7488 97.7177 37.6293C97.7642 37.3636 98.0431 37.025 98.3154 36.9054C98.4748 36.8324 99.0259 36.8191 100.952 36.8324C103.296 36.8457 103.395 36.8523 103.568 36.9851ZM112.068 36.9851C112.168 37.0582 112.314 37.2043 112.387 37.3039C112.52 37.4832 112.526 37.5629 112.526 40C112.526 42.4371 112.52 42.5168 112.387 42.6961C112.314 42.7957 112.168 42.9418 112.068 43.0148C111.889 43.1476 111.809 43.1543 109.372 43.1543C106.935 43.1543 106.855 43.1476 106.676 43.0148C106.576 42.9418 106.43 42.7957 106.357 42.6961C106.224 42.5234 106.218 42.4172 106.198 40.1793C106.185 38.891 106.198 37.7488 106.218 37.6293C106.264 37.3636 106.543 37.025 106.815 36.9054C106.975 36.8324 107.526 36.8191 109.452 36.8324C111.796 36.8457 111.895 36.8523 112.068 36.9851Z" fill="#273566"/>
<path d="M137.628 16.7179C137.515 16.7644 137.342 16.9039 137.243 17.0168C136.765 17.5879 137.05 18.5043 137.767 18.6968L138.06 18.7765V23V27.2234L137.767 27.3031C136.831 27.5488 136.745 28.9101 137.641 29.282C137.96 29.4215 165.784 29.4215 166.103 29.282C166.999 28.9101 166.913 27.5488 165.977 27.3031L165.685 27.2234V23V18.7765L165.977 18.6968C166.913 18.4511 166.999 17.0898 166.103 16.7179C165.784 16.5851 137.933 16.5851 137.628 16.7179ZM146.068 19.9851C146.168 20.0582 146.314 20.2043 146.387 20.3039C146.52 20.4832 146.526 20.5629 146.526 23C146.526 25.4371 146.52 25.5168 146.387 25.6961C146.314 25.7957 146.168 25.9418 146.068 26.0148C145.889 26.1476 145.809 26.1543 143.372 26.1543C140.935 26.1543 140.855 26.1476 140.676 26.0148C140.576 25.9418 140.43 25.7957 140.357 25.6961C140.224 25.5234 140.218 25.4172 140.198 23.1793C140.185 21.891 140.198 20.7488 140.218 20.6293C140.264 20.3636 140.543 20.025 140.815 19.9054C140.975 19.8324 141.526 19.8191 143.452 19.8324C145.796 19.8457 145.895 19.8523 146.068 19.9851ZM154.568 19.9851C154.668 20.0582 154.814 20.2043 154.887 20.3039C155.02 20.4832 155.026 20.5629 155.026 23C155.026 25.4371 155.02 25.5168 154.887 25.6961C154.814 25.7957 154.668 25.9418 154.568 26.0148C154.389 26.1476 154.309 26.1543 151.872 26.1543C149.435 26.1543 149.355 26.1476 149.176 26.0148C149.076 25.9418 148.93 25.7957 148.857 25.6961C148.724 25.5234 148.718 25.4172 148.698 23.1793C148.685 21.891 148.698 20.7488 148.718 20.6293C148.764 20.3636 149.043 20.025 149.315 19.9054C149.475 19.8324 150.026 19.8191 151.952 19.8324C154.296 19.8457 154.395 19.8523 154.568 19.9851ZM163.068 19.9851C163.168 20.0582 163.314 20.2043 163.387 20.3039C163.52 20.4832 163.526 20.5629 163.526 23C163.526 25.4371 163.52 25.5168 163.387 25.6961C163.314 25.7957 163.168 25.9418 163.068 26.0148C162.889 26.1476 162.809 26.1543 160.372 26.1543C157.935 26.1543 157.855 26.1476 157.676 26.0148C157.576 25.9418 157.43 25.7957 157.357 25.6961C157.224 25.5234 157.218 25.4172 157.198 23.1793C157.185 21.891 157.198 20.7488 157.218 20.6293C157.264 20.3636 157.543 20.025 157.815 19.9054C157.975 19.8324 158.526 19.8191 160.452 19.8324C162.796 19.8457 162.895 19.8523 163.068 19.9851Z" fill="#273566"/>
<path d="M137.628 33.7179C137.515 33.7644 137.342 33.9039 137.243 34.0168C136.765 34.5879 137.05 35.5043 137.767 35.6968L138.06 35.7765V40V44.2234L137.767 44.3031C136.831 44.5488 136.745 45.9101 137.641 46.282C137.96 46.4215 165.784 46.4215 166.103 46.282C166.999 45.9101 166.913 44.5488 165.977 44.3031L165.685 44.2234V40V35.7765L165.977 35.6968C166.913 35.4511 166.999 34.0898 166.103 33.7179C165.784 33.5851 137.933 33.5851 137.628 33.7179ZM146.068 36.9851C146.168 37.0582 146.314 37.2043 146.387 37.3039C146.52 37.4832 146.526 37.5629 146.526 40C146.526 42.4371 146.52 42.5168 146.387 42.6961C146.314 42.7957 146.168 42.9418 146.068 43.0148C145.889 43.1476 145.809 43.1543 143.372 43.1543C140.935 43.1543 140.855 43.1476 140.676 43.0148C140.576 42.9418 140.43 42.7957 140.357 42.6961C140.224 42.5234 140.218 42.4172 140.198 40.1793C140.185 38.891 140.198 37.7488 140.218 37.6293C140.264 37.3636 140.543 37.025 140.815 36.9054C140.975 36.8324 141.526 36.8191 143.452 36.8324C145.796 36.8457 145.895 36.8523 146.068 36.9851ZM154.568 36.9851C154.668 37.0582 154.814 37.2043 154.887 37.3039C155.02 37.4832 155.026 37.5629 155.026 40C155.026 42.4371 155.02 42.5168 154.887 42.6961C154.814 42.7957 154.668 42.9418 154.568 43.0148C154.389 43.1476 154.309 43.1543 151.872 43.1543C149.435 43.1543 149.355 43.1476 149.176 43.0148C149.076 42.9418 148.93 42.7957 148.857 42.6961C148.724 42.5234 148.718 42.4172 148.698 40.1793C148.685 38.891 148.698 37.7488 148.718 37.6293C148.764 37.3636 149.043 37.025 149.315 36.9054C149.475 36.8324 150.026 36.8191 151.952 36.8324C154.296 36.8457 154.395 36.8523 154.568 36.9851ZM163.068 36.9851C163.168 37.0582 163.314 37.2043 163.387 37.3039C163.52 37.4832 163.526 37.5629 163.526 40C163.526 42.4371 163.52 42.5168 163.387 42.6961C163.314 42.7957 163.168 42.9418 163.068 43.0148C162.889 43.1476 162.809 43.1543 160.372 43.1543C157.935 43.1543 157.855 43.1476 157.676 43.0148C157.576 42.9418 157.43 42.7957 157.357 42.6961C157.224 42.5234 157.218 42.4172 157.198 40.1793C157.185 38.891 157.198 37.7488 157.218 37.6293C157.264 37.3636 157.543 37.025 157.815 36.9054C157.975 36.8324 158.526 36.8191 160.452 36.8324C162.796 36.8457 162.895 36.8523 163.068 36.9851Z" fill="#273566"/>
<path d="M188.628 16.7179C188.515 16.7644 188.342 16.9039 188.243 17.0168C187.765 17.5879 188.05 18.5043 188.767 18.6968L189.06 18.7765V23V27.2234L188.767 27.3031C187.831 27.5488 187.745 28.9101 188.641 29.282C188.96 29.4215 216.784 29.4215 217.103 29.282C217.999 28.9101 217.913 27.5488 216.977 27.3031L216.685 27.2234V23V18.7765L216.977 18.6968C217.913 18.4511 217.999 17.0898 217.103 16.7179C216.784 16.5851 188.933 16.5851 188.628 16.7179ZM197.068 19.9851C197.168 20.0582 197.314 20.2043 197.387 20.3039C197.52 20.4832 197.526 20.5629 197.526 23C197.526 25.4371 197.52 25.5168 197.387 25.6961C197.314 25.7957 197.168 25.9418 197.068 26.0148C196.889 26.1476 196.809 26.1543 194.372 26.1543C191.935 26.1543 191.855 26.1476 191.676 26.0148C191.576 25.9418 191.43 25.7957 191.357 25.6961C191.224 25.5234 191.218 25.4172 191.198 23.1793C191.185 21.891 191.198 20.7488 191.218 20.6293C191.264 20.3636 191.543 20.025 191.815 19.9054C191.975 19.8324 192.526 19.8191 194.452 19.8324C196.796 19.8457 196.895 19.8523 197.068 19.9851ZM205.568 19.9851C205.668 20.0582 205.814 20.2043 205.887 20.3039C206.02 20.4832 206.026 20.5629 206.026 23C206.026 25.4371 206.02 25.5168 205.887 25.6961C205.814 25.7957 205.668 25.9418 205.568 26.0148C205.389 26.1476 205.309 26.1543 202.872 26.1543C200.435 26.1543 200.355 26.1476 200.176 26.0148C200.076 25.9418 199.93 25.7957 199.857 25.6961C199.724 25.5234 199.718 25.4172 199.698 23.1793C199.685 21.891 199.698 20.7488 199.718 20.6293C199.764 20.3636 200.043 20.025 200.315 19.9054C200.475 19.8324 201.026 19.8191 202.952 19.8324C205.296 19.8457 205.395 19.8523 205.568 19.9851ZM214.068 19.9851C214.168 20.0582 214.314 20.2043 214.387 20.3039C214.52 20.4832 214.526 20.5629 214.526 23C214.526 25.4371 214.52 25.5168 214.387 25.6961C214.314 25.7957 214.168 25.9418 214.068 26.0148C213.889 26.1476 213.809 26.1543 211.372 26.1543C208.935 26.1543 208.855 26.1476 208.676 26.0148C208.576 25.9418 208.43 25.7957 208.357 25.6961C208.224 25.5234 208.218 25.4172 208.198 23.1793C208.185 21.891 208.198 20.7488 208.218 20.6293C208.264 20.3636 208.543 20.025 208.815 19.9054C208.975 19.8324 209.526 19.8191 211.452 19.8324C213.796 19.8457 213.895 19.8523 214.068 19.9851Z" fill="#273566"/>
<path d="M188.628 33.7179C188.515 33.7644 188.342 33.9039 188.243 34.0168C187.765 34.5879 188.05 35.5043 188.767 35.6968L189.06 35.7765V40V44.2234L188.767 44.3031C187.831 44.5488 187.745 45.9101 188.641 46.282C188.96 46.4215 216.784 46.4215 217.103 46.282C217.999 45.9101 217.913 44.5488 216.977 44.3031L216.685 44.2234V40V35.7765L216.977 35.6968C217.913 35.4511 217.999 34.0898 217.103 33.7179C216.784 33.5851 188.933 33.5851 188.628 33.7179ZM197.068 36.9851C197.168 37.0582 197.314 37.2043 197.387 37.3039C197.52 37.4832 197.526 37.5629 197.526 40C197.526 42.4371 197.52 42.5168 197.387 42.6961C197.314 42.7957 197.168 42.9418 197.068 43.0148C196.889 43.1476 196.809 43.1543 194.372 43.1543C191.935 43.1543 191.855 43.1476 191.676 43.0148C191.576 42.9418 191.43 42.7957 191.357 42.6961C191.224 42.5234 191.218 42.4172 191.198 40.1793C191.185 38.891 191.198 37.7488 191.218 37.6293C191.264 37.3636 191.543 37.025 191.815 36.9054C191.975 36.8324 192.526 36.8191 194.452 36.8324C196.796 36.8457 196.895 36.8523 197.068 36.9851ZM205.568 36.9851C205.668 37.0582 205.814 37.2043 205.887 37.3039C206.02 37.4832 206.026 37.5629 206.026 40C206.026 42.4371 206.02 42.5168 205.887 42.6961C205.814 42.7957 205.668 42.9418 205.568 43.0148C205.389 43.1476 205.309 43.1543 202.872 43.1543C200.435 43.1543 200.355 43.1476 200.176 43.0148C200.076 42.9418 199.93 42.7957 199.857 42.6961C199.724 42.5234 199.718 42.4172 199.698 40.1793C199.685 38.891 199.698 37.7488 199.718 37.6293C199.764 37.3636 200.043 37.025 200.315 36.9054C200.475 36.8324 201.026 36.8191 202.952 36.8324C205.296 36.8457 205.395 36.8523 205.568 36.9851ZM214.068 36.9851C214.168 37.0582 214.314 37.2043 214.387 37.3039C214.52 37.4832 214.526 37.5629 214.526 40C214.526 42.4371 214.52 42.5168 214.387 42.6961C214.314 42.7957 214.168 42.9418 214.068 43.0148C213.889 43.1476 213.809 43.1543 211.372 43.1543C208.935 43.1543 208.855 43.1476 208.676 43.0148C208.576 42.9418 208.43 42.7957 208.357 42.6961C208.224 42.5234 208.218 42.4172 208.198 40.1793C208.185 38.891 208.198 37.7488 208.218 37.6293C208.264 37.3636 208.543 37.025 208.815 36.9054C208.975 36.8324 209.526 36.8191 211.452 36.8324C213.796 36.8457 213.895 36.8523 214.068 36.9851Z" fill="#273566"/>
<path d="M239.628 16.7179C239.515 16.7644 239.342 16.9039 239.243 17.0168C238.765 17.5879 239.05 18.5043 239.767 18.6968L240.06 18.7765V23V27.2234L239.767 27.3031C238.831 27.5488 238.745 28.9101 239.641 29.282C239.96 29.4215 267.784 29.4215 268.103 29.282C268.999 28.9101 268.913 27.5488 267.977 27.3031L267.685 27.2234V23V18.7765L267.977 18.6968C268.913 18.4511 268.999 17.0898 268.103 16.7179C267.784 16.5851 239.933 16.5851 239.628 16.7179ZM248.068 19.9851C248.168 20.0582 248.314 20.2043 248.387 20.3039C248.52 20.4832 248.526 20.5629 248.526 23C248.526 25.4371 248.52 25.5168 248.387 25.6961C248.314 25.7957 248.168 25.9418 248.068 26.0148C247.889 26.1476 247.809 26.1543 245.372 26.1543C242.935 26.1543 242.855 26.1476 242.676 26.0148C242.576 25.9418 242.43 25.7957 242.357 25.6961C242.224 25.5234 242.218 25.4172 242.198 23.1793C242.185 21.891 242.198 20.7488 242.218 20.6293C242.264 20.3636 242.543 20.025 242.815 19.9054C242.975 19.8324 243.526 19.8191 245.452 19.8324C247.796 19.8457 247.895 19.8523 248.068 19.9851ZM256.568 19.9851C256.668 20.0582 256.814 20.2043 256.887 20.3039C257.02 20.4832 257.026 20.5629 257.026 23C257.026 25.4371 257.02 25.5168 256.887 25.6961C256.814 25.7957 256.668 25.9418 256.568 26.0148C256.389 26.1476 256.309 26.1543 253.872 26.1543C251.435 26.1543 251.355 26.1476 251.176 26.0148C251.076 25.9418 250.93 25.7957 250.857 25.6961C250.724 25.5234 250.718 25.4172 250.698 23.1793C250.685 21.891 250.698 20.7488 250.718 20.6293C250.764 20.3636 251.043 20.025 251.315 19.9054C251.475 19.8324 252.026 19.8191 253.952 19.8324C256.296 19.8457 256.395 19.8523 256.568 19.9851ZM265.068 19.9851C265.168 20.0582 265.314 20.2043 265.387 20.3039C265.52 20.4832 265.526 20.5629 265.526 23C265.526 25.4371 265.52 25.5168 265.387 25.6961C265.314 25.7957 265.168 25.9418 265.068 26.0148C264.889 26.1476 264.809 26.1543 262.372 26.1543C259.935 26.1543 259.855 26.1476 259.676 26.0148C259.576 25.9418 259.43 25.7957 259.357 25.6961C259.224 25.5234 259.218 25.4172 259.198 23.1793C259.185 21.891 259.198 20.7488 259.218 20.6293C259.264 20.3636 259.543 20.025 259.815 19.9054C259.975 19.8324 260.526 19.8191 262.452 19.8324C264.796 19.8457 264.895 19.8523 265.068 19.9851Z" fill="#273566"/>
<path d="M239.628 33.7179C239.515 33.7644 239.342 33.9039 239.243 34.0168C238.765 34.5879 239.05 35.5043 239.767 35.6968L240.06 35.7765V40V44.2234L239.767 44.3031C238.831 44.5488 238.745 45.9101 239.641 46.282C239.96 46.4215 267.784 46.4215 268.103 46.282C268.999 45.9101 268.913 44.5488 267.977 44.3031L267.685 44.2234V40V35.7765L267.977 35.6968C268.913 35.4511 268.999 34.0898 268.103 33.7179C267.784 33.5851 239.933 33.5851 239.628 33.7179ZM248.068 36.9851C248.168 37.0582 248.314 37.2043 248.387 37.3039C248.52 37.4832 248.526 37.5629 248.526 40C248.526 42.4371 248.52 42.5168 248.387 42.6961C248.314 42.7957 248.168 42.9418 248.068 43.0148C247.889 43.1476 247.809 43.1543 245.372 43.1543C242.935 43.1543 242.855 43.1476 242.676 43.0148C242.576 42.9418 242.43 42.7957 242.357 42.6961C242.224 42.5234 242.218 42.4172 242.198 40.1793C242.185 38.891 242.198 37.7488 242.218 37.6293C242.264 37.3636 242.543 37.025 242.815 36.9054C242.975 36.8324 243.526 36.8191 245.452 36.8324C247.796 36.8457 247.895 36.8523 248.068 36.9851ZM256.568 36.9851C256.668 37.0582 256.814 37.2043 256.887 37.3039C257.02 37.4832 257.026 37.5629 257.026 40C257.026 42.4371 257.02 42.5168 256.887 42.6961C256.814 42.7957 256.668 42.9418 256.568 43.0148C256.389 43.1476 256.309 43.1543 253.872 43.1543C251.435 43.1543 251.355 43.1476 251.176 43.0148C251.076 42.9418 250.93 42.7957 250.857 42.6961C250.724 42.5234 250.718 42.4172 250.698 40.1793C250.685 38.891 250.698 37.7488 250.718 37.6293C250.764 37.3636 251.043 37.025 251.315 36.9054C251.475 36.8324 252.026 36.8191 253.952 36.8324C256.296 36.8457 256.395 36.8523 256.568 36.9851ZM265.068 36.9851C265.168 37.0582 265.314 37.2043 265.387 37.3039C265.52 37.4832 265.526 37.5629 265.526 40C265.526 42.4371 265.52 42.5168 265.387 42.6961C265.314 42.7957 265.168 42.9418 265.068 43.0148C264.889 43.1476 264.809 43.1543 262.372 43.1543C259.935 43.1543 259.855 43.1476 259.676 43.0148C259.576 42.9418 259.43 42.7957 259.357 42.6961C259.224 42.5234 259.218 42.4172 259.198 40.1793C259.185 38.891 259.198 37.7488 259.218 37.6293C259.264 37.3636 259.543 37.025 259.815 36.9054C259.975 36.8324 260.526 36.8191 262.452 36.8324C264.796 36.8457 264.895 36.8523 265.068 36.9851Z" fill="#273566"/>
<path d="M290.628 16.7179C290.515 16.7644 290.342 16.9039 290.243 17.0168C289.765 17.5879 290.05 18.5043 290.767 18.6968L291.06 18.7765V23V27.2234L290.767 27.3031C289.831 27.5488 289.745 28.9101 290.641 29.282C290.96 29.4215 318.784 29.4215 319.103 29.282C319.999 28.9101 319.913 27.5488 318.977 27.3031L318.685 27.2234V23V18.7765L318.977 18.6968C319.913 18.4511 319.999 17.0898 319.103 16.7179C318.784 16.5851 290.933 16.5851 290.628 16.7179ZM299.068 19.9851C299.168 20.0582 299.314 20.2043 299.387 20.3039C299.52 20.4832 299.526 20.5629 299.526 23C299.526 25.4371 299.52 25.5168 299.387 25.6961C299.314 25.7957 299.168 25.9418 299.068 26.0148C298.889 26.1476 298.809 26.1543 296.372 26.1543C293.935 26.1543 293.855 26.1476 293.676 26.0148C293.576 25.9418 293.43 25.7957 293.357 25.6961C293.224 25.5234 293.218 25.4172 293.198 23.1793C293.185 21.891 293.198 20.7488 293.218 20.6293C293.264 20.3636 293.543 20.025 293.815 19.9054C293.975 19.8324 294.526 19.8191 296.452 19.8324C298.796 19.8457 298.895 19.8523 299.068 19.9851ZM307.568 19.9851C307.668 20.0582 307.814 20.2043 307.887 20.3039C308.02 20.4832 308.026 20.5629 308.026 23C308.026 25.4371 308.02 25.5168 307.887 25.6961C307.814 25.7957 307.668 25.9418 307.568 26.0148C307.389 26.1476 307.309 26.1543 304.872 26.1543C302.435 26.1543 302.355 26.1476 302.176 26.0148C302.076 25.9418 301.93 25.7957 301.857 25.6961C301.724 25.5234 301.718 25.4172 301.698 23.1793C301.685 21.891 301.698 20.7488 301.718 20.6293C301.764 20.3636 302.043 20.025 302.315 19.9054C302.475 19.8324 303.026 19.8191 304.952 19.8324C307.296 19.8457 307.395 19.8523 307.568 19.9851ZM316.068 19.9851C316.168 20.0582 316.314 20.2043 316.387 20.3039C316.52 20.4832 316.526 20.5629 316.526 23C316.526 25.4371 316.52 25.5168 316.387 25.6961C316.314 25.7957 316.168 25.9418 316.068 26.0148C315.889 26.1476 315.809 26.1543 313.372 26.1543C310.935 26.1543 310.855 26.1476 310.676 26.0148C310.576 25.9418 310.43 25.7957 310.357 25.6961C310.224 25.5234 310.218 25.4172 310.198 23.1793C310.185 21.891 310.198 20.7488 310.218 20.6293C310.264 20.3636 310.543 20.025 310.815 19.9054C310.975 19.8324 311.526 19.8191 313.452 19.8324C315.796 19.8457 315.895 19.8523 316.068 19.9851Z" fill="#273566"/>
<path d="M290.628 33.7179C290.515 33.7644 290.342 33.9039 290.243 34.0168C289.765 34.5879 290.05 35.5043 290.767 35.6968L291.06 35.7765V40V44.2234L290.767 44.3031C289.831 44.5488 289.745 45.9101 290.641 46.282C290.96 46.4215 318.784 46.4215 319.103 46.282C319.999 45.9101 319.913 44.5488 318.977 44.3031L318.685 44.2234V40V35.7765L318.977 35.6968C319.913 35.4511 319.999 34.0898 319.103 33.7179C318.784 33.5851 290.933 33.5851 290.628 33.7179ZM299.068 36.9851C299.168 37.0582 299.314 37.2043 299.387 37.3039C299.52 37.4832 299.526 37.5629 299.526 40C299.526 42.4371 299.52 42.5168 299.387 42.6961C299.314 42.7957 299.168 42.9418 299.068 43.0148C298.889 43.1476 298.809 43.1543 296.372 43.1543C293.935 43.1543 293.855 43.1476 293.676 43.0148C293.576 42.9418 293.43 42.7957 293.357 42.6961C293.224 42.5234 293.218 42.4172 293.198 40.1793C293.185 38.891 293.198 37.7488 293.218 37.6293C293.264 37.3636 293.543 37.025 293.815 36.9054C293.975 36.8324 294.526 36.8191 296.452 36.8324C298.796 36.8457 298.895 36.8523 299.068 36.9851ZM307.568 36.9851C307.668 37.0582 307.814 37.2043 307.887 37.3039C308.02 37.4832 308.026 37.5629 308.026 40C308.026 42.4371 308.02 42.5168 307.887 42.6961C307.814 42.7957 307.668 42.9418 307.568 43.0148C307.389 43.1476 307.309 43.1543 304.872 43.1543C302.435 43.1543 302.355 43.1476 302.176 43.0148C302.076 42.9418 301.93 42.7957 301.857 42.6961C301.724 42.5234 301.718 42.4172 301.698 40.1793C301.685 38.891 301.698 37.7488 301.718 37.6293C301.764 37.3636 302.043 37.025 302.315 36.9054C302.475 36.8324 303.026 36.8191 304.952 36.8324C307.296 36.8457 307.395 36.8523 307.568 36.9851ZM316.068 36.9851C316.168 37.0582 316.314 37.2043 316.387 37.3039C316.52 37.4832 316.526 37.5629 316.526 40C316.526 42.4371 316.52 42.5168 316.387 42.6961C316.314 42.7957 316.168 42.9418 316.068 43.0148C315.889 43.1476 315.809 43.1543 313.372 43.1543C310.935 43.1543 310.855 43.1476 310.676 43.0148C310.576 42.9418 310.43 42.7957 310.357 42.6961C310.224 42.5234 310.218 42.4172 310.198 40.1793C310.185 38.891 310.198 37.7488 310.218 37.6293C310.264 37.3636 310.543 37.025 310.815 36.9054C310.975 36.8324 311.526 36.8191 313.452 36.8324C315.796 36.8457 315.895 36.8523 316.068 36.9851Z" fill="#273566"/>
<path d="M341.628 16.7179C341.515 16.7644 341.342 16.9039 341.243 17.0168C340.765 17.5879 341.05 18.5043 341.767 18.6968L342.06 18.7765V23V27.2234L341.767 27.3031C340.831 27.5488 340.745 28.9101 341.641 29.282C341.96 29.4215 369.784 29.4215 370.103 29.282C370.999 28.9101 370.913 27.5488 369.977 27.3031L369.685 27.2234V23V18.7765L369.977 18.6968C370.913 18.4511 370.999 17.0898 370.103 16.7179C369.784 16.5851 341.933 16.5851 341.628 16.7179ZM350.068 19.9851C350.168 20.0582 350.314 20.2043 350.387 20.3039C350.52 20.4832 350.526 20.5629 350.526 23C350.526 25.4371 350.52 25.5168 350.387 25.6961C350.314 25.7957 350.168 25.9418 350.068 26.0148C349.889 26.1476 349.809 26.1543 347.372 26.1543C344.935 26.1543 344.855 26.1476 344.676 26.0148C344.576 25.9418 344.43 25.7957 344.357 25.6961C344.224 25.5234 344.218 25.4172 344.198 23.1793C344.185 21.891 344.198 20.7488 344.218 20.6293C344.264 20.3636 344.543 20.025 344.815 19.9054C344.975 19.8324 345.526 19.8191 347.452 19.8324C349.796 19.8457 349.895 19.8523 350.068 19.9851ZM358.568 19.9851C358.668 20.0582 358.814 20.2043 358.887 20.3039C359.02 20.4832 359.026 20.5629 359.026 23C359.026 25.4371 359.02 25.5168 358.887 25.6961C358.814 25.7957 358.668 25.9418 358.568 26.0148C358.389 26.1476 358.309 26.1543 355.872 26.1543C353.435 26.1543 353.355 26.1476 353.176 26.0148C353.076 25.9418 352.93 25.7957 352.857 25.6961C352.724 25.5234 352.718 25.4172 352.698 23.1793C352.685 21.891 352.698 20.7488 352.718 20.6293C352.764 20.3636 353.043 20.025 353.315 19.9054C353.475 19.8324 354.026 19.8191 355.952 19.8324C358.296 19.8457 358.395 19.8523 358.568 19.9851ZM367.068 19.9851C367.168 20.0582 367.314 20.2043 367.387 20.3039C367.52 20.4832 367.526 20.5629 367.526 23C367.526 25.4371 367.52 25.5168 367.387 25.6961C367.314 25.7957 367.168 25.9418 367.068 26.0148C366.889 26.1476 366.809 26.1543 364.372 26.1543C361.935 26.1543 361.855 26.1476 361.676 26.0148C361.576 25.9418 361.43 25.7957 361.357 25.6961C361.224 25.5234 361.218 25.4172 361.198 23.1793C361.185 21.891 361.198 20.7488 361.218 20.6293C361.264 20.3636 361.543 20.025 361.815 19.9054C361.975 19.8324 362.526 19.8191 364.452 19.8324C366.796 19.8457 366.895 19.8523 367.068 19.9851Z" fill="#273566"/>
<path d="M341.628 33.7179C341.515 33.7644 341.342 33.9039 341.243 34.0168C340.765 34.5879 341.05 35.5043 341.767 35.6968L342.06 35.7765V40V44.2234L341.767 44.3031C340.831 44.5488 340.745 45.9101 341.641 46.282C341.96 46.4215 369.784 46.4215 370.103 46.282C370.999 45.9101 370.913 44.5488 369.977 44.3031L369.685 44.2234V40V35.7765L369.977 35.6968C370.913 35.4511 370.999 34.0898 370.103 33.7179C369.784 33.5851 341.933 33.5851 341.628 33.7179ZM350.068 36.9851C350.168 37.0582 350.314 37.2043 350.387 37.3039C350.52 37.4832 350.526 37.5629 350.526 40C350.526 42.4371 350.52 42.5168 350.387 42.6961C350.314 42.7957 350.168 42.9418 350.068 43.0148C349.889 43.1476 349.809 43.1543 347.372 43.1543C344.935 43.1543 344.855 43.1476 344.676 43.0148C344.576 42.9418 344.43 42.7957 344.357 42.6961C344.224 42.5234 344.218 42.4172 344.198 40.1793C344.185 38.891 344.198 37.7488 344.218 37.6293C344.264 37.3636 344.543 37.025 344.815 36.9054C344.975 36.8324 345.526 36.8191 347.452 36.8324C349.796 36.8457 349.895 36.8523 350.068 36.9851ZM358.568 36.9851C358.668 37.0582 358.814 37.2043 358.887 37.3039C359.02 37.4832 359.026 37.5629 359.026 40C359.026 42.4371 359.02 42.5168 358.887 42.6961C358.814 42.7957 358.668 42.9418 358.568 43.0148C358.389 43.1476 358.309 43.1543 355.872 43.1543C353.435 43.1543 353.355 43.1476 353.176 43.0148C353.076 42.9418 352.93 42.7957 352.857 42.6961C352.724 42.5234 352.718 42.4172 352.698 40.1793C352.685 38.891 352.698 37.7488 352.718 37.6293C352.764 37.3636 353.043 37.025 353.315 36.9054C353.475 36.8324 354.026 36.8191 355.952 36.8324C358.296 36.8457 358.395 36.8523 358.568 36.9851ZM367.068 36.9851C367.168 37.0582 367.314 37.2043 367.387 37.3039C367.52 37.4832 367.526 37.5629 367.526 40C367.526 42.4371 367.52 42.5168 367.387 42.6961C367.314 42.7957 367.168 42.9418 367.068 43.0148C366.889 43.1476 366.809 43.1543 364.372 43.1543C361.935 43.1543 361.855 43.1476 361.676 43.0148C361.576 42.9418 361.43 42.7957 361.357 42.6961C361.224 42.5234 361.218 42.4172 361.198 40.1793C361.185 38.891 361.198 37.7488 361.218 37.6293C361.264 37.3636 361.543 37.025 361.815 36.9054C361.975 36.8324 362.526 36.8191 364.452 36.8324C366.796 36.8457 366.895 36.8523 367.068 36.9851Z" fill="#273566"/>
<path d="M392.628 16.7179C392.515 16.7644 392.342 16.9039 392.243 17.0168C391.765 17.5879 392.05 18.5043 392.767 18.6968L393.06 18.7765V23V27.2234L392.767 27.3031C391.831 27.5488 391.745 28.9101 392.641 29.282C392.96 29.4215 420.784 29.4215 421.103 29.282C421.999 28.9101 421.913 27.5488 420.977 27.3031L420.685 27.2234V23V18.7765L420.977 18.6968C421.913 18.4511 421.999 17.0898 421.103 16.7179C420.784 16.5851 392.933 16.5851 392.628 16.7179ZM401.068 19.9851C401.168 20.0582 401.314 20.2043 401.387 20.3039C401.52 20.4832 401.526 20.5629 401.526 23C401.526 25.4371 401.52 25.5168 401.387 25.6961C401.314 25.7957 401.168 25.9418 401.068 26.0148C400.889 26.1476 400.809 26.1543 398.372 26.1543C395.935 26.1543 395.855 26.1476 395.676 26.0148C395.576 25.9418 395.43 25.7957 395.357 25.6961C395.224 25.5234 395.218 25.4172 395.198 23.1793C395.185 21.891 395.198 20.7488 395.218 20.6293C395.264 20.3636 395.543 20.025 395.815 19.9054C395.975 19.8324 396.526 19.8191 398.452 19.8324C400.796 19.8457 400.895 19.8523 401.068 19.9851ZM409.568 19.9851C409.668 20.0582 409.814 20.2043 409.887 20.3039C410.02 20.4832 410.026 20.5629 410.026 23C410.026 25.4371 410.02 25.5168 409.887 25.6961C409.814 25.7957 409.668 25.9418 409.568 26.0148C409.389 26.1476 409.309 26.1543 406.872 26.1543C404.435 26.1543 404.355 26.1476 404.176 26.0148C404.076 25.9418 403.93 25.7957 403.857 25.6961C403.724 25.5234 403.718 25.4172 403.698 23.1793C403.685 21.891 403.698 20.7488 403.718 20.6293C403.764 20.3636 404.043 20.025 404.315 19.9054C404.475 19.8324 405.026 19.8191 406.952 19.8324C409.296 19.8457 409.395 19.8523 409.568 19.9851ZM418.068 19.9851C418.168 20.0582 418.314 20.2043 418.387 20.3039C418.52 20.4832 418.526 20.5629 418.526 23C418.526 25.4371 418.52 25.5168 418.387 25.6961C418.314 25.7957 418.168 25.9418 418.068 26.0148C417.889 26.1476 417.809 26.1543 415.372 26.1543C412.935 26.1543 412.855 26.1476 412.676 26.0148C412.576 25.9418 412.43 25.7957 412.357 25.6961C412.224 25.5234 412.218 25.4172 412.198 23.1793C412.185 21.891 412.198 20.7488 412.218 20.6293C412.264 20.3636 412.543 20.025 412.815 19.9054C412.975 19.8324 413.526 19.8191 415.452 19.8324C417.796 19.8457 417.895 19.8523 418.068 19.9851Z" fill="#273566"/>
<path d="M392.628 33.7179C392.515 33.7644 392.342 33.9039 392.243 34.0168C391.765 34.5879 392.05 35.5043 392.767 35.6968L393.06 35.7765V40V44.2234L392.767 44.3031C391.831 44.5488 391.745 45.9101 392.641 46.282C392.96 46.4215 420.784 46.4215 421.103 46.282C421.999 45.9101 421.913 44.5488 420.977 44.3031L420.685 44.2234V40V35.7765L420.977 35.6968C421.913 35.4511 421.999 34.0898 421.103 33.7179C420.784 33.5851 392.933 33.5851 392.628 33.7179ZM401.068 36.9851C401.168 37.0582 401.314 37.2043 401.387 37.3039C401.52 37.4832 401.526 37.5629 401.526 40C401.526 42.4371 401.52 42.5168 401.387 42.6961C401.314 42.7957 401.168 42.9418 401.068 43.0148C400.889 43.1476 400.809 43.1543 398.372 43.1543C395.935 43.1543 395.855 43.1476 395.676 43.0148C395.576 42.9418 395.43 42.7957 395.357 42.6961C395.224 42.5234 395.218 42.4172 395.198 40.1793C395.185 38.891 395.198 37.7488 395.218 37.6293C395.264 37.3636 395.543 37.025 395.815 36.9054C395.975 36.8324 396.526 36.8191 398.452 36.8324C400.796 36.8457 400.895 36.8523 401.068 36.9851ZM409.568 36.9851C409.668 37.0582 409.814 37.2043 409.887 37.3039C410.02 37.4832 410.026 37.5629 410.026 40C410.026 42.4371 410.02 42.5168 409.887 42.6961C409.814 42.7957 409.668 42.9418 409.568 43.0148C409.389 43.1476 409.309 43.1543 406.872 43.1543C404.435 43.1543 404.355 43.1476 404.176 43.0148C404.076 42.9418 403.93 42.7957 403.857 42.6961C403.724 42.5234 403.718 42.4172 403.698 40.1793C403.685 38.891 403.698 37.7488 403.718 37.6293C403.764 37.3636 404.043 37.025 404.315 36.9054C404.475 36.8324 405.026 36.8191 406.952 36.8324C409.296 36.8457 409.395 36.8523 409.568 36.9851ZM418.068 36.9851C418.168 37.0582 418.314 37.2043 418.387 37.3039C418.52 37.4832 418.526 37.5629 418.526 40C418.526 42.4371 418.52 42.5168 418.387 42.6961C418.314 42.7957 418.168 42.9418 418.068 43.0148C417.889 43.1476 417.809 43.1543 415.372 43.1543C412.935 43.1543 412.855 43.1476 412.676 43.0148C412.576 42.9418 412.43 42.7957 412.357 42.6961C412.224 42.5234 412.218 42.4172 412.198 40.1793C412.185 38.891 412.198 37.7488 412.218 37.6293C412.264 37.3636 412.543 37.025 412.815 36.9054C412.975 36.8324 413.526 36.8191 415.452 36.8324C417.796 36.8457 417.895 36.8523 418.068 36.9851Z" fill="#273566"/>
<path d="M443.628 16.7179C443.515 16.7644 443.342 16.9039 443.243 17.0168C442.765 17.5879 443.05 18.5043 443.767 18.6968L444.06 18.7765V23V27.2234L443.767 27.3031C442.831 27.5488 442.745 28.9101 443.641 29.282C443.96 29.4215 471.784 29.4215 472.103 29.282C472.999 28.9101 472.913 27.5488 471.977 27.3031L471.685 27.2234V23V18.7765L471.977 18.6968C472.913 18.4511 472.999 17.0898 472.103 16.7179C471.784 16.5851 443.933 16.5851 443.628 16.7179ZM452.068 19.9851C452.168 20.0582 452.314 20.2043 452.387 20.3039C452.52 20.4832 452.526 20.5629 452.526 23C452.526 25.4371 452.52 25.5168 452.387 25.6961C452.314 25.7957 452.168 25.9418 452.068 26.0148C451.889 26.1476 451.809 26.1543 449.372 26.1543C446.935 26.1543 446.855 26.1476 446.676 26.0148C446.576 25.9418 446.43 25.7957 446.357 25.6961C446.224 25.5234 446.218 25.4172 446.198 23.1793C446.185 21.891 446.198 20.7488 446.218 20.6293C446.264 20.3636 446.543 20.025 446.815 19.9054C446.975 19.8324 447.526 19.8191 449.452 19.8324C451.796 19.8457 451.895 19.8523 452.068 19.9851ZM460.568 19.9851C460.668 20.0582 460.814 20.2043 460.887 20.3039C461.02 20.4832 461.026 20.5629 461.026 23C461.026 25.4371 461.02 25.5168 460.887 25.6961C460.814 25.7957 460.668 25.9418 460.568 26.0148C460.389 26.1476 460.309 26.1543 457.872 26.1543C455.435 26.1543 455.355 26.1476 455.176 26.0148C455.076 25.9418 454.93 25.7957 454.857 25.6961C454.724 25.5234 454.718 25.4172 454.698 23.1793C454.685 21.891 454.698 20.7488 454.718 20.6293C454.764 20.3636 455.043 20.025 455.315 19.9054C455.475 19.8324 456.026 19.8191 457.952 19.8324C460.296 19.8457 460.395 19.8523 460.568 19.9851ZM469.068 19.9851C469.168 20.0582 469.314 20.2043 469.387 20.3039C469.52 20.4832 469.526 20.5629 469.526 23C469.526 25.4371 469.52 25.5168 469.387 25.6961C469.314 25.7957 469.168 25.9418 469.068 26.0148C468.889 26.1476 468.809 26.1543 466.372 26.1543C463.935 26.1543 463.855 26.1476 463.676 26.0148C463.576 25.9418 463.43 25.7957 463.357 25.6961C463.224 25.5234 463.218 25.4172 463.198 23.1793C463.185 21.891 463.198 20.7488 463.218 20.6293C463.264 20.3636 463.543 20.025 463.815 19.9054C463.975 19.8324 464.526 19.8191 466.452 19.8324C468.796 19.8457 468.895 19.8523 469.068 19.9851Z" fill="#273566"/>
<path d="M443.628 33.7179C443.515 33.7644 443.342 33.9039 443.243 34.0168C442.765 34.5879 443.05 35.5043 443.767 35.6968L444.06 35.7765V40V44.2234L443.767 44.3031C442.831 44.5488 442.745 45.9101 443.641 46.282C443.96 46.4215 471.784 46.4215 472.103 46.282C472.999 45.9101 472.913 44.5488 471.977 44.3031L471.685 44.2234V40V35.7765L471.977 35.6968C472.913 35.4511 472.999 34.0898 472.103 33.7179C471.784 33.5851 443.933 33.5851 443.628 33.7179ZM452.068 36.9851C452.168 37.0582 452.314 37.2043 452.387 37.3039C452.52 37.4832 452.526 37.5629 452.526 40C452.526 42.4371 452.52 42.5168 452.387 42.6961C452.314 42.7957 452.168 42.9418 452.068 43.0148C451.889 43.1476 451.809 43.1543 449.372 43.1543C446.935 43.1543 446.855 43.1476 446.676 43.0148C446.576 42.9418 446.43 42.7957 446.357 42.6961C446.224 42.5234 446.218 42.4172 446.198 40.1793C446.185 38.891 446.198 37.7488 446.218 37.6293C446.264 37.3636 446.543 37.025 446.815 36.9054C446.975 36.8324 447.526 36.8191 449.452 36.8324C451.796 36.8457 451.895 36.8523 452.068 36.9851ZM460.568 36.9851C460.668 37.0582 460.814 37.2043 460.887 37.3039C461.02 37.4832 461.026 37.5629 461.026 40C461.026 42.4371 461.02 42.5168 460.887 42.6961C460.814 42.7957 460.668 42.9418 460.568 43.0148C460.389 43.1476 460.309 43.1543 457.872 43.1543C455.435 43.1543 455.355 43.1476 455.176 43.0148C455.076 42.9418 454.93 42.7957 454.857 42.6961C454.724 42.5234 454.718 42.4172 454.698 40.1793C454.685 38.891 454.698 37.7488 454.718 37.6293C454.764 37.3636 455.043 37.025 455.315 36.9054C455.475 36.8324 456.026 36.8191 457.952 36.8324C460.296 36.8457 460.395 36.8523 460.568 36.9851ZM469.068 36.9851C469.168 37.0582 469.314 37.2043 469.387 37.3039C469.52 37.4832 469.526 37.5629 469.526 40C469.526 42.4371 469.52 42.5168 469.387 42.6961C469.314 42.7957 469.168 42.9418 469.068 43.0148C468.889 43.1476 468.809 43.1543 466.372 43.1543C463.935 43.1543 463.855 43.1476 463.676 43.0148C463.576 42.9418 463.43 42.7957 463.357 42.6961C463.224 42.5234 463.218 42.4172 463.198 40.1793C463.185 38.891 463.198 37.7488 463.218 37.6293C463.264 37.3636 463.543 37.025 463.815 36.9054C463.975 36.8324 464.526 36.8191 466.452 36.8324C468.796 36.8457 468.895 36.8523 469.068 36.9851Z" fill="#273566"/>
<path d="M494.628 16.7179C494.515 16.7644 494.342 16.9039 494.243 17.0168C493.765 17.5879 494.05 18.5043 494.767 18.6968L495.06 18.7765V23V27.2234L494.767 27.3031C493.831 27.5488 493.745 28.9101 494.641 29.282C494.96 29.4215 522.784 29.4215 523.103 29.282C523.999 28.9101 523.913 27.5488 522.977 27.3031L522.685 27.2234V23V18.7765L522.977 18.6968C523.913 18.4511 523.999 17.0898 523.103 16.7179C522.784 16.5851 494.933 16.5851 494.628 16.7179ZM503.068 19.9851C503.168 20.0582 503.314 20.2043 503.387 20.3039C503.52 20.4832 503.526 20.5629 503.526 23C503.526 25.4371 503.52 25.5168 503.387 25.6961C503.314 25.7957 503.168 25.9418 503.068 26.0148C502.889 26.1476 502.809 26.1543 500.372 26.1543C497.935 26.1543 497.855 26.1476 497.676 26.0148C497.576 25.9418 497.43 25.7957 497.357 25.6961C497.224 25.5234 497.218 25.4172 497.198 23.1793C497.185 21.891 497.198 20.7488 497.218 20.6293C497.264 20.3636 497.543 20.025 497.815 19.9054C497.975 19.8324 498.526 19.8191 500.452 19.8324C502.796 19.8457 502.895 19.8523 503.068 19.9851ZM511.568 19.9851C511.668 20.0582 511.814 20.2043 511.887 20.3039C512.02 20.4832 512.026 20.5629 512.026 23C512.026 25.4371 512.02 25.5168 511.887 25.6961C511.814 25.7957 511.668 25.9418 511.568 26.0148C511.389 26.1476 511.309 26.1543 508.872 26.1543C506.435 26.1543 506.355 26.1476 506.176 26.0148C506.076 25.9418 505.93 25.7957 505.857 25.6961C505.724 25.5234 505.718 25.4172 505.698 23.1793C505.685 21.891 505.698 20.7488 505.718 20.6293C505.764 20.3636 506.043 20.025 506.315 19.9054C506.475 19.8324 507.026 19.8191 508.952 19.8324C511.296 19.8457 511.395 19.8523 511.568 19.9851ZM520.068 19.9851C520.168 20.0582 520.314 20.2043 520.387 20.3039C520.52 20.4832 520.526 20.5629 520.526 23C520.526 25.4371 520.52 25.5168 520.387 25.6961C520.314 25.7957 520.168 25.9418 520.068 26.0148C519.889 26.1476 519.809 26.1543 517.372 26.1543C514.935 26.1543 514.855 26.1476 514.676 26.0148C514.576 25.9418 514.43 25.7957 514.357 25.6961C514.224 25.5234 514.218 25.4172 514.198 23.1793C514.185 21.891 514.198 20.7488 514.218 20.6293C514.264 20.3636 514.543 20.025 514.815 19.9054C514.975 19.8324 515.526 19.8191 517.452 19.8324C519.796 19.8457 519.895 19.8523 520.068 19.9851Z" fill="#273566"/>
<path d="M494.628 33.7179C494.515 33.7644 494.342 33.9039 494.243 34.0168C493.765 34.5879 494.05 35.5043 494.767 35.6968L495.06 35.7765V40V44.2234L494.767 44.3031C493.831 44.5488 493.745 45.9101 494.641 46.282C494.96 46.4215 522.784 46.4215 523.103 46.282C523.999 45.9101 523.913 44.5488 522.977 44.3031L522.685 44.2234V40V35.7765L522.977 35.6968C523.913 35.4511 523.999 34.0898 523.103 33.7179C522.784 33.5851 494.933 33.5851 494.628 33.7179ZM503.068 36.9851C503.168 37.0582 503.314 37.2043 503.387 37.3039C503.52 37.4832 503.526 37.5629 503.526 40C503.526 42.4371 503.52 42.5168 503.387 42.6961C503.314 42.7957 503.168 42.9418 503.068 43.0148C502.889 43.1476 502.809 43.1543 500.372 43.1543C497.935 43.1543 497.855 43.1476 497.676 43.0148C497.576 42.9418 497.43 42.7957 497.357 42.6961C497.224 42.5234 497.218 42.4172 497.198 40.1793C497.185 38.891 497.198 37.7488 497.218 37.6293C497.264 37.3636 497.543 37.025 497.815 36.9054C497.975 36.8324 498.526 36.8191 500.452 36.8324C502.796 36.8457 502.895 36.8523 503.068 36.9851ZM511.568 36.9851C511.668 37.0582 511.814 37.2043 511.887 37.3039C512.02 37.4832 512.026 37.5629 512.026 40C512.026 42.4371 512.02 42.5168 511.887 42.6961C511.814 42.7957 511.668 42.9418 511.568 43.0148C511.389 43.1476 511.309 43.1543 508.872 43.1543C506.435 43.1543 506.355 43.1476 506.176 43.0148C506.076 42.9418 505.93 42.7957 505.857 42.6961C505.724 42.5234 505.718 42.4172 505.698 40.1793C505.685 38.891 505.698 37.7488 505.718 37.6293C505.764 37.3636 506.043 37.025 506.315 36.9054C506.475 36.8324 507.026 36.8191 508.952 36.8324C511.296 36.8457 511.395 36.8523 511.568 36.9851ZM520.068 36.9851C520.168 37.0582 520.314 37.2043 520.387 37.3039C520.52 37.4832 520.526 37.5629 520.526 40C520.526 42.4371 520.52 42.5168 520.387 42.6961C520.314 42.7957 520.168 42.9418 520.068 43.0148C519.889 43.1476 519.809 43.1543 517.372 43.1543C514.935 43.1543 514.855 43.1476 514.676 43.0148C514.576 42.9418 514.43 42.7957 514.357 42.6961C514.224 42.5234 514.218 42.4172 514.198 40.1793C514.185 38.891 514.198 37.7488 514.218 37.6293C514.264 37.3636 514.543 37.025 514.815 36.9054C514.975 36.8324 515.526 36.8191 517.452 36.8324C519.796 36.8457 519.895 36.8523 520.068 36.9851Z" fill="#273566"/>
<path d="M545.628 16.7179C545.515 16.7644 545.342 16.9039 545.243 17.0168C544.765 17.5879 545.05 18.5043 545.767 18.6968L546.06 18.7765V23V27.2234L545.767 27.3031C544.831 27.5488 544.745 28.9101 545.641 29.282C545.96 29.4215 573.784 29.4215 574.103 29.282C574.999 28.9101 574.913 27.5488 573.977 27.3031L573.685 27.2234V23V18.7765L573.977 18.6968C574.913 18.4511 574.999 17.0898 574.103 16.7179C573.784 16.5851 545.933 16.5851 545.628 16.7179ZM554.068 19.9851C554.168 20.0582 554.314 20.2043 554.387 20.3039C554.52 20.4832 554.526 20.5629 554.526 23C554.526 25.4371 554.52 25.5168 554.387 25.6961C554.314 25.7957 554.168 25.9418 554.068 26.0148C553.889 26.1476 553.809 26.1543 551.372 26.1543C548.935 26.1543 548.855 26.1476 548.676 26.0148C548.576 25.9418 548.43 25.7957 548.357 25.6961C548.224 25.5234 548.218 25.4172 548.198 23.1793C548.185 21.891 548.198 20.7488 548.218 20.6293C548.264 20.3636 548.543 20.025 548.815 19.9054C548.975 19.8324 549.526 19.8191 551.452 19.8324C553.796 19.8457 553.895 19.8523 554.068 19.9851ZM562.568 19.9851C562.668 20.0582 562.814 20.2043 562.887 20.3039C563.02 20.4832 563.026 20.5629 563.026 23C563.026 25.4371 563.02 25.5168 562.887 25.6961C562.814 25.7957 562.668 25.9418 562.568 26.0148C562.389 26.1476 562.309 26.1543 559.872 26.1543C557.435 26.1543 557.355 26.1476 557.176 26.0148C557.076 25.9418 556.93 25.7957 556.857 25.6961C556.724 25.5234 556.718 25.4172 556.698 23.1793C556.685 21.891 556.698 20.7488 556.718 20.6293C556.764 20.3636 557.043 20.025 557.315 19.9054C557.475 19.8324 558.026 19.8191 559.952 19.8324C562.296 19.8457 562.395 19.8523 562.568 19.9851ZM571.068 19.9851C571.168 20.0582 571.314 20.2043 571.387 20.3039C571.52 20.4832 571.526 20.5629 571.526 23C571.526 25.4371 571.52 25.5168 571.387 25.6961C571.314 25.7957 571.168 25.9418 571.068 26.0148C570.889 26.1476 570.809 26.1543 568.372 26.1543C565.935 26.1543 565.855 26.1476 565.676 26.0148C565.576 25.9418 565.43 25.7957 565.357 25.6961C565.224 25.5234 565.218 25.4172 565.198 23.1793C565.185 21.891 565.198 20.7488 565.218 20.6293C565.264 20.3636 565.543 20.025 565.815 19.9054C565.975 19.8324 566.526 19.8191 568.452 19.8324C570.796 19.8457 570.895 19.8523 571.068 19.9851Z" fill="#273566"/>
<path d="M545.628 33.7179C545.515 33.7644 545.342 33.9039 545.243 34.0168C544.765 34.5879 545.05 35.5043 545.767 35.6968L546.06 35.7765V40V44.2234L545.767 44.3031C544.831 44.5488 544.745 45.9101 545.641 46.282C545.96 46.4215 573.784 46.4215 574.103 46.282C574.999 45.9101 574.913 44.5488 573.977 44.3031L573.685 44.2234V40V35.7765L573.977 35.6968C574.913 35.4511 574.999 34.0898 574.103 33.7179C573.784 33.5851 545.933 33.5851 545.628 33.7179ZM554.068 36.9851C554.168 37.0582 554.314 37.2043 554.387 37.3039C554.52 37.4832 554.526 37.5629 554.526 40C554.526 42.4371 554.52 42.5168 554.387 42.6961C554.314 42.7957 554.168 42.9418 554.068 43.0148C553.889 43.1476 553.809 43.1543 551.372 43.1543C548.935 43.1543 548.855 43.1476 548.676 43.0148C548.576 42.9418 548.43 42.7957 548.357 42.6961C548.224 42.5234 548.218 42.4172 548.198 40.1793C548.185 38.891 548.198 37.7488 548.218 37.6293C548.264 37.3636 548.543 37.025 548.815 36.9054C548.975 36.8324 549.526 36.8191 551.452 36.8324C553.796 36.8457 553.895 36.8523 554.068 36.9851ZM562.568 36.9851C562.668 37.0582 562.814 37.2043 562.887 37.3039C563.02 37.4832 563.026 37.5629 563.026 40C563.026 42.4371 563.02 42.5168 562.887 42.6961C562.814 42.7957 562.668 42.9418 562.568 43.0148C562.389 43.1476 562.309 43.1543 559.872 43.1543C557.435 43.1543 557.355 43.1476 557.176 43.0148C557.076 42.9418 556.93 42.7957 556.857 42.6961C556.724 42.5234 556.718 42.4172 556.698 40.1793C556.685 38.891 556.698 37.7488 556.718 37.6293C556.764 37.3636 557.043 37.025 557.315 36.9054C557.475 36.8324 558.026 36.8191 559.952 36.8324C562.296 36.8457 562.395 36.8523 562.568 36.9851ZM571.068 36.9851C571.168 37.0582 571.314 37.2043 571.387 37.3039C571.52 37.4832 571.526 37.5629 571.526 40C571.526 42.4371 571.52 42.5168 571.387 42.6961C571.314 42.7957 571.168 42.9418 571.068 43.0148C570.889 43.1476 570.809 43.1543 568.372 43.1543C565.935 43.1543 565.855 43.1476 565.676 43.0148C565.576 42.9418 565.43 42.7957 565.357 42.6961C565.224 42.5234 565.218 42.4172 565.198 40.1793C565.185 38.891 565.198 37.7488 565.218 37.6293C565.264 37.3636 565.543 37.025 565.815 36.9054C565.975 36.8324 566.526 36.8191 568.452 36.8324C570.796 36.8457 570.895 36.8523 571.068 36.9851Z" fill="#273566"/>
<path d="M596.628 16.7179C596.515 16.7644 596.342 16.9039 596.243 17.0168C595.765 17.5879 596.05 18.5043 596.767 18.6968L597.06 18.7765V23V27.2234L596.767 27.3031C595.831 27.5488 595.745 28.9101 596.641 29.282C596.96 29.4215 624.784 29.4215 625.103 29.282C625.999 28.9101 625.913 27.5488 624.977 27.3031L624.685 27.2234V23V18.7765L624.977 18.6968C625.913 18.4511 625.999 17.0898 625.103 16.7179C624.784 16.5851 596.933 16.5851 596.628 16.7179ZM605.068 19.9851C605.168 20.0582 605.314 20.2043 605.387 20.3039C605.52 20.4832 605.526 20.5629 605.526 23C605.526 25.4371 605.52 25.5168 605.387 25.6961C605.314 25.7957 605.168 25.9418 605.068 26.0148C604.889 26.1476 604.809 26.1543 602.372 26.1543C599.935 26.1543 599.855 26.1476 599.676 26.0148C599.576 25.9418 599.43 25.7957 599.357 25.6961C599.224 25.5234 599.218 25.4172 599.198 23.1793C599.185 21.891 599.198 20.7488 599.218 20.6293C599.264 20.3636 599.543 20.025 599.815 19.9054C599.975 19.8324 600.526 19.8191 602.452 19.8324C604.796 19.8457 604.895 19.8523 605.068 19.9851ZM613.568 19.9851C613.668 20.0582 613.814 20.2043 613.887 20.3039C614.02 20.4832 614.026 20.5629 614.026 23C614.026 25.4371 614.02 25.5168 613.887 25.6961C613.814 25.7957 613.668 25.9418 613.568 26.0148C613.389 26.1476 613.309 26.1543 610.872 26.1543C608.435 26.1543 608.355 26.1476 608.176 26.0148C608.076 25.9418 607.93 25.7957 607.857 25.6961C607.724 25.5234 607.718 25.4172 607.698 23.1793C607.685 21.891 607.698 20.7488 607.718 20.6293C607.764 20.3636 608.043 20.025 608.315 19.9054C608.475 19.8324 609.026 19.8191 610.952 19.8324C613.296 19.8457 613.395 19.8523 613.568 19.9851ZM622.068 19.9851C622.168 20.0582 622.314 20.2043 622.387 20.3039C622.52 20.4832 622.526 20.5629 622.526 23C622.526 25.4371 622.52 25.5168 622.387 25.6961C622.314 25.7957 622.168 25.9418 622.068 26.0148C621.889 26.1476 621.809 26.1543 619.372 26.1543C616.935 26.1543 616.855 26.1476 616.676 26.0148C616.576 25.9418 616.43 25.7957 616.357 25.6961C616.224 25.5234 616.218 25.4172 616.198 23.1793C616.185 21.891 616.198 20.7488 616.218 20.6293C616.264 20.3636 616.543 20.025 616.815 19.9054C616.975 19.8324 617.526 19.8191 619.452 19.8324C621.796 19.8457 621.895 19.8523 622.068 19.9851Z" fill="#273566"/>
<path d="M596.628 33.7179C596.515 33.7644 596.342 33.9039 596.243 34.0168C595.765 34.5879 596.05 35.5043 596.767 35.6968L597.06 35.7765V40V44.2234L596.767 44.3031C595.831 44.5488 595.745 45.9101 596.641 46.282C596.96 46.4215 624.784 46.4215 625.103 46.282C625.999 45.9101 625.913 44.5488 624.977 44.3031L624.685 44.2234V40V35.7765L624.977 35.6968C625.913 35.4511 625.999 34.0898 625.103 33.7179C624.784 33.5851 596.933 33.5851 596.628 33.7179ZM605.068 36.9851C605.168 37.0582 605.314 37.2043 605.387 37.3039C605.52 37.4832 605.526 37.5629 605.526 40C605.526 42.4371 605.52 42.5168 605.387 42.6961C605.314 42.7957 605.168 42.9418 605.068 43.0148C604.889 43.1476 604.809 43.1543 602.372 43.1543C599.935 43.1543 599.855 43.1476 599.676 43.0148C599.576 42.9418 599.43 42.7957 599.357 42.6961C599.224 42.5234 599.218 42.4172 599.198 40.1793C599.185 38.891 599.198 37.7488 599.218 37.6293C599.264 37.3636 599.543 37.025 599.815 36.9054C599.975 36.8324 600.526 36.8191 602.452 36.8324C604.796 36.8457 604.895 36.8523 605.068 36.9851ZM613.568 36.9851C613.668 37.0582 613.814 37.2043 613.887 37.3039C614.02 37.4832 614.026 37.5629 614.026 40C614.026 42.4371 614.02 42.5168 613.887 42.6961C613.814 42.7957 613.668 42.9418 613.568 43.0148C613.389 43.1476 613.309 43.1543 610.872 43.1543C608.435 43.1543 608.355 43.1476 608.176 43.0148C608.076 42.9418 607.93 42.7957 607.857 42.6961C607.724 42.5234 607.718 42.4172 607.698 40.1793C607.685 38.891 607.698 37.7488 607.718 37.6293C607.764 37.3636 608.043 37.025 608.315 36.9054C608.475 36.8324 609.026 36.8191 610.952 36.8324C613.296 36.8457 613.395 36.8523 613.568 36.9851ZM622.068 36.9851C622.168 37.0582 622.314 37.2043 622.387 37.3039C622.52 37.4832 622.526 37.5629 622.526 40C622.526 42.4371 622.52 42.5168 622.387 42.6961C622.314 42.7957 622.168 42.9418 622.068 43.0148C621.889 43.1476 621.809 43.1543 619.372 43.1543C616.935 43.1543 616.855 43.1476 616.676 43.0148C616.576 42.9418 616.43 42.7957 616.357 42.6961C616.224 42.5234 616.218 42.4172 616.198 40.1793C616.185 38.891 616.198 37.7488 616.218 37.6293C616.264 37.3636 616.543 37.025 616.815 36.9054C616.975 36.8324 617.526 36.8191 619.452 36.8324C621.796 36.8457 621.895 36.8523 622.068 36.9851Z" fill="#273566"/>
<path d="M647.628 16.7179C647.515 16.7644 647.342 16.9039 647.243 17.0168C646.765 17.5879 647.05 18.5043 647.767 18.6968L648.06 18.7765V23V27.2234L647.767 27.3031C646.831 27.5488 646.745 28.9101 647.641 29.282C647.96 29.4215 675.784 29.4215 676.103 29.282C676.999 28.9101 676.913 27.5488 675.977 27.3031L675.685 27.2234V23V18.7765L675.977 18.6968C676.913 18.4511 676.999 17.0898 676.103 16.7179C675.784 16.5851 647.933 16.5851 647.628 16.7179ZM656.068 19.9851C656.168 20.0582 656.314 20.2043 656.387 20.3039C656.52 20.4832 656.526 20.5629 656.526 23C656.526 25.4371 656.52 25.5168 656.387 25.6961C656.314 25.7957 656.168 25.9418 656.068 26.0148C655.889 26.1476 655.809 26.1543 653.372 26.1543C650.935 26.1543 650.855 26.1476 650.676 26.0148C650.576 25.9418 650.43 25.7957 650.357 25.6961C650.224 25.5234 650.218 25.4172 650.198 23.1793C650.185 21.891 650.198 20.7488 650.218 20.6293C650.264 20.3636 650.543 20.025 650.815 19.9054C650.975 19.8324 651.526 19.8191 653.452 19.8324C655.796 19.8457 655.895 19.8523 656.068 19.9851ZM664.568 19.9851C664.668 20.0582 664.814 20.2043 664.887 20.3039C665.02 20.4832 665.026 20.5629 665.026 23C665.026 25.4371 665.02 25.5168 664.887 25.6961C664.814 25.7957 664.668 25.9418 664.568 26.0148C664.389 26.1476 664.309 26.1543 661.872 26.1543C659.435 26.1543 659.355 26.1476 659.176 26.0148C659.076 25.9418 658.93 25.7957 658.857 25.6961C658.724 25.5234 658.718 25.4172 658.698 23.1793C658.685 21.891 658.698 20.7488 658.718 20.6293C658.764 20.3636 659.043 20.025 659.315 19.9054C659.475 19.8324 660.026 19.8191 661.952 19.8324C664.296 19.8457 664.395 19.8523 664.568 19.9851ZM673.068 19.9851C673.168 20.0582 673.314 20.2043 673.387 20.3039C673.52 20.4832 673.526 20.5629 673.526 23C673.526 25.4371 673.52 25.5168 673.387 25.6961C673.314 25.7957 673.168 25.9418 673.068 26.0148C672.889 26.1476 672.809 26.1543 670.372 26.1543C667.935 26.1543 667.855 26.1476 667.676 26.0148C667.576 25.9418 667.43 25.7957 667.357 25.6961C667.224 25.5234 667.218 25.4172 667.198 23.1793C667.185 21.891 667.198 20.7488 667.218 20.6293C667.264 20.3636 667.543 20.025 667.815 19.9054C667.975 19.8324 668.526 19.8191 670.452 19.8324C672.796 19.8457 672.895 19.8523 673.068 19.9851Z" fill="#273566"/>
<path d="M647.628 33.7179C647.515 33.7644 647.342 33.9039 647.243 34.0168C646.765 34.5879 647.05 35.5043 647.767 35.6968L648.06 35.7765V40V44.2234L647.767 44.3031C646.831 44.5488 646.745 45.9101 647.641 46.282C647.96 46.4215 675.784 46.4215 676.103 46.282C676.999 45.9101 676.913 44.5488 675.977 44.3031L675.685 44.2234V40V35.7765L675.977 35.6968C676.913 35.4511 676.999 34.0898 676.103 33.7179C675.784 33.5851 647.933 33.5851 647.628 33.7179ZM656.068 36.9851C656.168 37.0582 656.314 37.2043 656.387 37.3039C656.52 37.4832 656.526 37.5629 656.526 40C656.526 42.4371 656.52 42.5168 656.387 42.6961C656.314 42.7957 656.168 42.9418 656.068 43.0148C655.889 43.1476 655.809 43.1543 653.372 43.1543C650.935 43.1543 650.855 43.1476 650.676 43.0148C650.576 42.9418 650.43 42.7957 650.357 42.6961C650.224 42.5234 650.218 42.4172 650.198 40.1793C650.185 38.891 650.198 37.7488 650.218 37.6293C650.264 37.3636 650.543 37.025 650.815 36.9054C650.975 36.8324 651.526 36.8191 653.452 36.8324C655.796 36.8457 655.895 36.8523 656.068 36.9851ZM664.568 36.9851C664.668 37.0582 664.814 37.2043 664.887 37.3039C665.02 37.4832 665.026 37.5629 665.026 40C665.026 42.4371 665.02 42.5168 664.887 42.6961C664.814 42.7957 664.668 42.9418 664.568 43.0148C664.389 43.1476 664.309 43.1543 661.872 43.1543C659.435 43.1543 659.355 43.1476 659.176 43.0148C659.076 42.9418 658.93 42.7957 658.857 42.6961C658.724 42.5234 658.718 42.4172 658.698 40.1793C658.685 38.891 658.698 37.7488 658.718 37.6293C658.764 37.3636 659.043 37.025 659.315 36.9054C659.475 36.8324 660.026 36.8191 661.952 36.8324C664.296 36.8457 664.395 36.8523 664.568 36.9851ZM673.068 36.9851C673.168 37.0582 673.314 37.2043 673.387 37.3039C673.52 37.4832 673.526 37.5629 673.526 40C673.526 42.4371 673.52 42.5168 673.387 42.6961C673.314 42.7957 673.168 42.9418 673.068 43.0148C672.889 43.1476 672.809 43.1543 670.372 43.1543C667.935 43.1543 667.855 43.1476 667.676 43.0148C667.576 42.9418 667.43 42.7957 667.357 42.6961C667.224 42.5234 667.218 42.4172 667.198 40.1793C667.185 38.891 667.198 37.7488 667.218 37.6293C667.264 37.3636 667.543 37.025 667.815 36.9054C667.975 36.8324 668.526 36.8191 670.452 36.8324C672.796 36.8457 672.895 36.8523 673.068 36.9851Z" fill="#273566"/>
</g>
<defs>
<clipPath id="clip0_114_1109">
<rect width="696" height="63" fill="white" transform="translate(0.87207)"/>
</clipPath>
</defs>
</svg>
