<?xml version="1.0" encoding="UTF-8"?>
<svg id="Camada_2" data-name="Camada 2" xmlns="http://www.w3.org/2000/svg" viewBox="0 0 800.29 226.73">
  <defs>
    <style>
      .cls-1 {
        fill: #fff;
      }
    </style>
  </defs>
  <g id="Camada_1-2" data-name="Camada 1">
    <g>
      <path class="cls-1" d="M195.7,226.11c21.84-17.35,40.18-36.28,53.67-59.97,1.53-2.69,6.79-4.31,10.43-4.52,10.84-.62,21.74-.28,32.62-.33,26.39-.13,47.62-22.21,47.51-49.38-.11-26.76-22.08-49.85-47.55-49.9-15-.03-30,0-46.78,0,0,14.94-.75,29.05,.13,43.07,3.49,55.82-51.66,116.91-114.11,120.47C62.51,229.47,6.88,183.65,.41,118.1-5.26,60.66,48.57,.71,106.29,.27c16.31-.13,32.64-.31,48.94,.25,3.13,.11,8.74,3.46,8.81,5.48,.69,18.29,.4,36.61,.4,56.09-18.23,0-34.89,.47-51.51-.12-20.13-.72-33.23,9.9-42.49,25.94-9.32,16.15-8.83,33.36,.86,49.01,12.59,20.34,32.24,27.9,55.68,27,25.07-.97,42.51-13.49,53.54-35.37,1.94-3.86,2.1-8.9,2.12-13.39,.17-33.51,.09-67.02,.09-100.54,0-4.09,0-8.19,0-12.65,44.55,0,88.7-5.24,130.97,1.42,45.63,7.18,75.95,39.72,86.17,86.15,9.98,45.35-6.4,82.39-42.05,110.84-20.45,16.32-44.23,25.35-70.64,25.66-30.49,.36-60.99,.08-91.49,.08Z"/>
      <path class="cls-1" d="M715.44,1.09c-13.31,23.62-25.36,45.03-37.42,66.43-27.89,49.48-55.94,98.87-83.49,148.54-4.2,7.57-9.02,10.81-17.62,10.6-19.14-.46-38.31-.14-60.35-.14,5.96-10.65,10.62-19.19,15.47-27.63,36.18-62.99,72.32-125.99,108.78-188.82,2.19-3.77,6.91-8.42,10.62-8.57,20.27-.84,40.59-.4,64.01-.4Z"/>
      <path class="cls-1" d="M800.29,.2c-15.68,28.38-29.64,53.95-43.89,79.36-22.25,39.66-45.06,79.01-66.9,118.9-10.48,19.14-24.97,29.41-47.23,28.18-11.18-.62-22.43-.11-36.23-.11,7.18-13.17,13.05-24.43,19.36-35.43,34.87-60.83,69.69-121.69,105.09-182.22,2.48-4.25,9.36-7.99,14.41-8.28,17.39-1.01,34.88-.39,55.38-.39Z"/>
      <path class="cls-1" d="M500.61,225.69c-11.59-21.43-22.4-41.04-32.64-60.93-1.13-2.19,.22-6.49,1.7-9.09,28.05-49.37,56.26-98.66,84.6-147.86,1.52-2.64,4.49-6.26,6.86-6.31,21.06-.49,42.14-.29,65.17-.29-42.28,75.52-83.42,149-125.69,224.49Z"/>
      <path class="cls-1" d="M375.48,.64c23.29,0,44.38-.27,65.44,.35,2.62,.08,5.74,4.5,7.56,7.55,12.8,21.55,25.56,43.14,37.71,65.06,2.01,3.62,2.81,9.93,1.01,13.3-9.61,18.01-20.23,35.49-31.78,55.36-26.83-47.54-52.71-93.37-79.94-141.62Z"/>
    </g>
  </g>
</svg>