<svg width="26" height="26" viewBox="0 0 26 26" fill="none" xmlns="http://www.w3.org/2000/svg">
<circle cx="13" cy="13" r="13" fill="white" fill-opacity="0.5"/>
<path d="M12.2968 5.04936C12.2452 5.07125 12.0512 5.22763 11.8663 5.39652C10.4961 6.64443 9.01972 7.22617 6.99773 7.31374C6.56423 7.33251 6.3975 7.35127 6.32777 7.38881C6.19135 7.46074 6.04887 7.64214 6.02462 7.77663C6.00947 7.84231 6.00037 8.84627 6.00037 10.0066C5.99734 12.2554 6.00947 12.4837 6.1671 13.5564C6.70671 17.197 8.56803 19.5239 12.0118 20.8625C12.518 21.0596 12.512 21.0596 13.2274 20.7656C15.0766 20.0118 16.4984 18.8953 17.4321 17.466C18.2748 16.1774 18.7326 14.7105 18.9478 12.6182C18.9963 12.1615 19.0024 11.7956 18.9994 9.99097C18.9994 8.83689 18.9903 7.84231 18.9751 7.77663C18.9508 7.64214 18.8084 7.46074 18.672 7.38881C18.6022 7.35127 18.4355 7.33251 18.002 7.31374C15.983 7.22617 14.4976 6.64131 13.1365 5.39652C12.703 5.00244 12.5453 4.93676 12.2968 5.04936ZM15.4677 11.3671C15.4646 11.4203 12.0482 14.7105 11.9178 14.7825C11.8481 14.8231 11.745 14.8544 11.6844 14.8544C11.4449 14.8544 11.3479 14.7668 10.4172 13.7034L9.53204 12.6901L9.94432 12.3117C10.2384 12.0396 10.3657 11.9426 10.393 11.9645C10.4142 11.9801 10.7234 12.3273 11.0781 12.737L11.7238 13.4783L11.9542 13.2499C12.0785 13.1217 12.7545 12.4587 13.4517 11.7737L14.7219 10.5258L15.0948 10.9324C15.3009 11.1544 15.4677 11.3484 15.4677 11.3671Z" fill="#E05100"/>
</svg>
