<svg width="537" height="345" viewBox="0 0 537 345" fill="none" xmlns="http://www.w3.org/2000/svg">
<circle cx="76.3203" cy="76.1049" r="75" fill="#F2D30F" stroke="#273566" stroke-width="2"/>
<path d="M51.3398 67.8861H54.123L49.0449 82.1049H47.1602L47.6387 79.4193L51.3398 67.8861ZM47.9219 79.4193L48.4297 82.1049H46.5449L41.4766 67.8861H44.25L47.9219 79.4193ZM60.1484 82.3002C59.1003 82.3002 58.1953 82.0756 57.4336 81.6263C56.6719 81.1706 56.0859 80.5586 55.6758 79.7904C55.2656 79.0157 55.0605 78.1498 55.0605 77.1927V76.7924C55.0605 75.6921 55.2689 74.7351 55.6855 73.9213C56.1022 73.101 56.6719 72.4662 57.3945 72.017C58.1237 71.5677 58.9473 71.3431 59.8652 71.3431C60.8809 71.3431 61.724 71.5645 62.3945 72.0072C63.0651 72.4434 63.5664 73.0521 63.8984 73.8334C64.2305 74.6081 64.3965 75.5066 64.3965 76.5287V77.5736H56.2227V75.8256H62.0039V75.64C61.9909 75.2299 61.9128 74.8457 61.7695 74.4877C61.6263 74.1296 61.3984 73.8399 61.0859 73.6185C60.7799 73.3972 60.3698 73.2865 59.8555 73.2865C59.3411 73.2865 58.9082 73.433 58.5566 73.726C58.2051 74.0124 57.9382 74.4193 57.7559 74.9467C57.5736 75.4675 57.4824 76.0827 57.4824 76.7924V77.1927C57.4824 77.7917 57.5931 78.3288 57.8145 78.8041C58.0358 79.2793 58.3581 79.6569 58.7812 79.9369C59.2044 80.2103 59.709 80.347 60.2949 80.347C60.8613 80.347 61.3626 80.2364 61.7988 80.015C62.2415 79.7937 62.6224 79.4747 62.9414 79.058L64.2109 80.3275C63.8789 80.8288 63.3776 81.2845 62.707 81.6947C62.043 82.0983 61.1901 82.3002 60.1484 82.3002ZM68.6348 82.1049H66.2129V71.5385H68.5176L68.6348 73.6088V82.1049ZM71.8184 73.765C71.6686 73.739 71.5091 73.7194 71.3398 73.7064C71.1771 73.6934 71.0143 73.6869 70.8516 73.6869C70.3177 73.6869 69.8717 73.7845 69.5137 73.9799C69.1621 74.1687 68.8952 74.4421 68.7129 74.8002C68.5306 75.1517 68.4232 75.5684 68.3906 76.0502L67.834 76.0599C67.834 75.168 67.9512 74.3672 68.1855 73.6576C68.4199 72.948 68.7715 72.3848 69.2402 71.9681C69.709 71.5515 70.2949 71.3431 70.998 71.3431C71.1348 71.3431 71.2878 71.3562 71.457 71.3822C71.6263 71.4082 71.7533 71.4375 71.8379 71.4701L71.8184 73.765ZM79.2012 79.224C79.2012 79.0026 79.1426 78.8008 79.0254 78.6185C78.9147 78.4362 78.6966 78.267 78.3711 78.1107C78.0456 77.9545 77.5671 77.8112 76.9355 77.681C76.1868 77.5248 75.526 77.3164 74.9531 77.056C74.3867 76.7956 73.944 76.4603 73.625 76.0502C73.3125 75.64 73.1562 75.1387 73.1562 74.5463C73.1562 73.9733 73.319 73.446 73.6445 72.9642C73.9766 72.476 74.4486 72.0853 75.0605 71.7924C75.679 71.4929 76.4082 71.3431 77.248 71.3431C78.1335 71.3431 78.8952 71.4929 79.5332 71.7924C80.1712 72.0853 80.6595 72.4857 80.998 72.9935C81.3431 73.4948 81.5156 74.0645 81.5156 74.7025H79.0938C79.0938 74.2858 78.9375 73.9213 78.625 73.6088C78.319 73.2898 77.8568 73.1302 77.2383 73.1302C76.8542 73.1302 76.5319 73.1921 76.2715 73.3158C76.0176 73.4395 75.8255 73.599 75.6953 73.7943C75.5716 73.9896 75.5098 74.2045 75.5098 74.4388C75.5098 74.6667 75.5716 74.8653 75.6953 75.0345C75.8255 75.2038 76.0436 75.3536 76.3496 75.4838C76.6621 75.614 77.0983 75.7377 77.6582 75.8549C78.4655 76.0241 79.1621 76.239 79.748 76.4994C80.334 76.7533 80.7832 77.0918 81.0957 77.515C81.4147 77.9317 81.5742 78.4623 81.5742 79.1068C81.5742 79.7253 81.3952 80.2754 81.0371 80.7572C80.6855 81.239 80.1875 81.6166 79.543 81.89C78.9049 82.1635 78.1497 82.3002 77.2773 82.3002C76.3073 82.3002 75.4902 82.1276 74.8262 81.7826C74.1621 81.4375 73.6576 80.9981 73.3125 80.4642C72.974 79.9239 72.8047 79.364 72.8047 78.7845H75.1387C75.1647 79.2012 75.2819 79.5365 75.4902 79.7904C75.7051 80.0443 75.972 80.2299 76.291 80.347C76.6165 80.4577 76.9551 80.5131 77.3066 80.5131C77.7233 80.5131 78.0684 80.4577 78.3418 80.347C78.6217 80.2364 78.8333 80.0866 78.9766 79.8978C79.1263 79.7025 79.2012 79.4779 79.2012 79.224ZM89.543 74.9662C89.543 74.4193 89.39 73.9831 89.084 73.6576C88.7845 73.3321 88.3288 73.1693 87.7168 73.1693C87.3522 73.1693 87.0332 73.2344 86.7598 73.3646C86.4863 73.4883 86.2747 73.6576 86.125 73.8724C85.9753 74.0873 85.9004 74.3314 85.9004 74.6049H83.4785C83.4785 74.0385 83.6576 73.5079 84.0156 73.0131C84.3737 72.5118 84.8783 72.1081 85.5293 71.8021C86.1868 71.4961 86.9616 71.3431 87.8535 71.3431C88.6478 71.3431 89.3542 71.4766 89.9727 71.7435C90.5911 72.0105 91.0762 72.4141 91.4277 72.9545C91.7858 73.4948 91.9648 74.1719 91.9648 74.9857V79.6439C91.9648 80.1387 92.0007 80.5749 92.0723 80.9525C92.1439 81.3301 92.2448 81.6589 92.375 81.9388V82.1049H89.8945C89.7839 81.851 89.696 81.5222 89.6309 81.1185C89.5723 80.7149 89.543 80.321 89.543 79.9369V74.9662ZM89.9141 77.1635H88.2539C87.3945 77.1635 86.7467 77.323 86.3105 77.642C85.8809 77.9545 85.666 78.3809 85.666 78.9213C85.666 79.3379 85.8092 79.6862 86.0957 79.9662C86.3822 80.2396 86.7858 80.3763 87.3066 80.3763C87.7819 80.3763 88.1953 80.2819 88.5469 80.0931C88.9049 79.8978 89.1849 79.6602 89.3867 79.3802C89.5885 79.0938 89.6927 78.8269 89.6992 78.5795L90.4707 79.6635C90.3926 79.9304 90.2591 80.2168 90.0703 80.5228C89.888 80.8223 89.6439 81.1088 89.3379 81.3822C89.0384 81.6491 88.6803 81.8705 88.2637 82.0463C87.8535 82.2155 87.375 82.3002 86.8281 82.3002C86.138 82.3002 85.5228 82.1635 84.9824 81.89C84.4421 81.6166 84.0156 81.2422 83.7031 80.767C83.3971 80.2852 83.2441 79.7448 83.2441 79.1459C83.2441 78.0261 83.6641 77.1667 84.5039 76.5677C85.3438 75.9688 86.5352 75.6693 88.0781 75.6693H89.8945L89.9141 77.1635ZM88.6348 67.1049H91.3594L88.6836 70.0638H86.7305L88.6348 67.1049ZM99.3086 73.3256H93.3125V71.5385H99.3086V73.3256ZM97.4336 68.9506V79.1263C97.4336 79.4519 97.4792 79.6993 97.5703 79.8685C97.6615 80.0313 97.7917 80.142 97.9609 80.2006C98.1302 80.2592 98.3255 80.2885 98.5469 80.2885C98.7096 80.2885 98.8659 80.2787 99.0156 80.2592C99.1654 80.2396 99.2858 80.2201 99.377 80.2006V82.0658C99.1816 82.1309 98.9538 82.1862 98.6934 82.2318C98.4395 82.2774 98.14 82.3002 97.7949 82.3002C97.2546 82.3002 96.7728 82.2025 96.3496 82.0072C95.9329 81.8119 95.6042 81.4961 95.3633 81.0599C95.1289 80.6172 95.0117 80.0313 95.0117 79.3021V68.9506H97.4336ZM103.674 82.1049H101.252V71.5385H103.674V82.1049ZM101.096 68.7748C101.096 68.4037 101.216 68.0977 101.457 67.8568C101.698 67.6094 102.033 67.4857 102.463 67.4857C102.893 67.4857 103.231 67.6094 103.479 67.8568C103.726 68.0977 103.85 68.4037 103.85 68.7748C103.85 69.1394 103.726 69.4454 103.479 69.6927C103.231 69.9336 102.893 70.0541 102.463 70.0541C102.033 70.0541 101.698 69.9336 101.457 69.6927C101.216 69.4454 101.096 69.1394 101.096 68.7748ZM108.811 82.1049H106.389V67.1049H108.811V82.1049Z" fill="#0F193E"/>
<circle cx="76.3203" cy="268.105" r="75" fill="#F2D30F" stroke="#273566" stroke-width="2"/>
<path d="M37.1328 267.367C37.1328 268.805 36.8854 270.042 36.3906 271.078C35.8958 272.113 35.2057 272.91 34.3203 273.47C33.4414 274.023 32.4095 274.3 31.2246 274.3C30.0658 274.3 29.0371 274.023 28.1387 273.47C27.2467 272.91 26.5469 272.113 26.0391 271.078C25.5378 270.042 25.2871 268.805 25.2871 267.367V266.634C25.2871 265.195 25.5378 263.958 26.0391 262.923C26.5404 261.882 27.237 261.084 28.1289 260.531C29.0208 259.971 30.0462 259.691 31.2051 259.691C32.39 259.691 33.4251 259.971 34.3105 260.531C35.196 261.084 35.8861 261.882 36.3809 262.923C36.8822 263.958 37.1328 265.195 37.1328 266.634V267.367ZM34.6035 266.615C34.6035 265.566 34.4701 264.684 34.2031 263.968C33.9362 263.245 33.5488 262.702 33.041 262.337C32.5332 261.966 31.9212 261.781 31.2051 261.781C30.502 261.781 29.8965 261.966 29.3887 262.337C28.8874 262.702 28.5 263.245 28.2266 263.968C27.9596 264.684 27.8262 265.566 27.8262 266.615V267.367C27.8262 268.415 27.9629 269.3 28.2363 270.023C28.5098 270.745 28.9004 271.292 29.4082 271.663C29.916 272.035 30.5215 272.22 31.2246 272.22C31.9473 272.22 32.5592 272.035 33.0605 271.663C33.5684 271.292 33.9525 270.745 34.2129 270.023C34.4733 269.3 34.6035 268.415 34.6035 267.367V266.615ZM41.752 259.105V271.82L41.5176 274.105H39.3301V259.105H41.752ZM48.627 268.929C48.627 269.971 48.4707 270.895 48.1582 271.703C47.8522 272.51 47.3932 273.145 46.7812 273.607C46.1758 274.069 45.4206 274.3 44.5156 274.3C43.6367 274.3 42.9076 274.079 42.3281 273.636C41.7552 273.193 41.3092 272.585 40.9902 271.81C40.6777 271.029 40.4629 270.13 40.3457 269.115V268.538C40.4629 267.516 40.6777 266.618 40.9902 265.843C41.3092 265.062 41.7552 264.45 42.3281 264.007C42.901 263.564 43.6237 263.343 44.4961 263.343C45.4076 263.343 46.1693 263.571 46.7812 264.027C47.3932 264.482 47.8522 265.114 48.1582 265.921C48.4707 266.729 48.627 267.663 48.627 268.724V268.929ZM46.2051 268.724C46.2051 268.106 46.1335 267.539 45.9902 267.025C45.8535 266.51 45.6159 266.1 45.2773 265.794C44.9453 265.482 44.4831 265.326 43.8906 265.326C43.4805 265.326 43.1289 265.394 42.8359 265.531C42.543 265.667 42.2956 265.856 42.0938 266.097C41.8984 266.338 41.7454 266.621 41.6348 266.947C41.5241 267.272 41.4492 267.624 41.4102 268.001V269.661C41.4688 270.15 41.5892 270.596 41.7715 270.999C41.9538 271.403 42.2207 271.725 42.5723 271.966C42.9238 272.201 43.3698 272.318 43.9102 272.318C44.4896 272.318 44.9453 272.168 45.2773 271.869C45.6094 271.569 45.847 271.165 45.9902 270.658C46.1335 270.143 46.2051 269.567 46.2051 268.929V268.724ZM53.002 274.105H50.5801V263.538H52.8848L53.002 265.609V274.105ZM56.1855 265.765C56.0358 265.739 55.8763 265.719 55.707 265.706C55.5443 265.693 55.3815 265.687 55.2188 265.687C54.6849 265.687 54.2389 265.785 53.8809 265.98C53.5293 266.169 53.2624 266.442 53.0801 266.8C52.8978 267.152 52.7904 267.568 52.7578 268.05L52.2012 268.06C52.2012 267.168 52.3184 266.367 52.5527 265.658C52.7871 264.948 53.1387 264.385 53.6074 263.968C54.0762 263.551 54.6621 263.343 55.3652 263.343C55.502 263.343 55.6549 263.356 55.8242 263.382C55.9935 263.408 56.1204 263.438 56.2051 263.47L56.1855 265.765ZM63.4219 266.966C63.4219 266.419 63.2689 265.983 62.9629 265.658C62.6634 265.332 62.2077 265.169 61.5957 265.169C61.2311 265.169 60.9121 265.234 60.6387 265.365C60.3652 265.488 60.1536 265.658 60.0039 265.872C59.8542 266.087 59.7793 266.331 59.7793 266.605H57.3574C57.3574 266.038 57.5365 265.508 57.8945 265.013C58.2526 264.512 58.7572 264.108 59.4082 263.802C60.0658 263.496 60.8405 263.343 61.7324 263.343C62.5267 263.343 63.2331 263.477 63.8516 263.744C64.4701 264.01 64.9551 264.414 65.3066 264.954C65.6647 265.495 65.8438 266.172 65.8438 266.986V271.644C65.8438 272.139 65.8796 272.575 65.9512 272.953C66.0228 273.33 66.1237 273.659 66.2539 273.939V274.105H63.7734C63.6628 273.851 63.5749 273.522 63.5098 273.119C63.4512 272.715 63.4219 272.321 63.4219 271.937V266.966ZM63.793 269.163H62.1328C61.2734 269.163 60.6257 269.323 60.1895 269.642C59.7598 269.954 59.5449 270.381 59.5449 270.921C59.5449 271.338 59.6882 271.686 59.9746 271.966C60.2611 272.24 60.6647 272.376 61.1855 272.376C61.6608 272.376 62.0742 272.282 62.4258 272.093C62.7839 271.898 63.0638 271.66 63.2656 271.38C63.4674 271.094 63.5716 270.827 63.5781 270.579L64.3496 271.663C64.2715 271.93 64.138 272.217 63.9492 272.523C63.7669 272.822 63.5228 273.109 63.2168 273.382C62.9173 273.649 62.5592 273.87 62.1426 274.046C61.7324 274.216 61.2539 274.3 60.707 274.3C60.0169 274.3 59.4017 274.163 58.8613 273.89C58.321 273.617 57.8945 273.242 57.582 272.767C57.276 272.285 57.123 271.745 57.123 271.146C57.123 270.026 57.543 269.167 58.3828 268.568C59.2227 267.969 60.4141 267.669 61.957 267.669H63.7734L63.793 269.163ZM75.6973 274.105H73.2754V263.538H75.5801L75.6973 265.609V274.105ZM78.8809 265.765C78.7311 265.739 78.5716 265.719 78.4023 265.706C78.2396 265.693 78.0768 265.687 77.9141 265.687C77.3802 265.687 76.9342 265.785 76.5762 265.98C76.2246 266.169 75.9577 266.442 75.7754 266.8C75.5931 267.152 75.4857 267.568 75.4531 268.05L74.8965 268.06C74.8965 267.168 75.0137 266.367 75.248 265.658C75.4824 264.948 75.834 264.385 76.3027 263.968C76.7715 263.551 77.3574 263.343 78.0605 263.343C78.1973 263.343 78.3503 263.356 78.5195 263.382C78.6888 263.408 78.8158 263.438 78.9004 263.47L78.8809 265.765ZM86.293 266.966C86.293 266.419 86.14 265.983 85.834 265.658C85.5345 265.332 85.0788 265.169 84.4668 265.169C84.1022 265.169 83.7832 265.234 83.5098 265.365C83.2363 265.488 83.0247 265.658 82.875 265.872C82.7253 266.087 82.6504 266.331 82.6504 266.605H80.2285C80.2285 266.038 80.4076 265.508 80.7656 265.013C81.1237 264.512 81.6283 264.108 82.2793 263.802C82.9368 263.496 83.7116 263.343 84.6035 263.343C85.3978 263.343 86.1042 263.477 86.7227 263.744C87.3411 264.01 87.8262 264.414 88.1777 264.954C88.5358 265.495 88.7148 266.172 88.7148 266.986V271.644C88.7148 272.139 88.7507 272.575 88.8223 272.953C88.8939 273.33 88.9948 273.659 89.125 273.939V274.105H86.6445C86.5339 273.851 86.446 273.522 86.3809 273.119C86.3223 272.715 86.293 272.321 86.293 271.937V266.966ZM86.6641 269.163H85.0039C84.1445 269.163 83.4967 269.323 83.0605 269.642C82.6309 269.954 82.416 270.381 82.416 270.921C82.416 271.338 82.5592 271.686 82.8457 271.966C83.1322 272.24 83.5358 272.376 84.0566 272.376C84.5319 272.376 84.9453 272.282 85.2969 272.093C85.6549 271.898 85.9349 271.66 86.1367 271.38C86.3385 271.094 86.4427 270.827 86.4492 270.579L87.2207 271.663C87.1426 271.93 87.0091 272.217 86.8203 272.523C86.638 272.822 86.3939 273.109 86.0879 273.382C85.7884 273.649 85.4303 273.87 85.0137 274.046C84.6035 274.216 84.125 274.3 83.5781 274.3C82.888 274.3 82.2728 274.163 81.7324 273.89C81.1921 273.617 80.7656 273.242 80.4531 272.767C80.1471 272.285 79.9941 271.745 79.9941 271.146C79.9941 270.026 80.4141 269.167 81.2539 268.568C82.0938 267.969 83.2852 267.669 84.8281 267.669H86.6445L86.6641 269.163ZM85.3848 259.105H88.1094L85.4336 262.064H83.4805L85.3848 259.105ZM93.5879 278.167H91.166V263.538H93.4023L93.5879 265.57V278.167ZM100.443 268.919C100.443 269.948 100.284 270.869 99.9648 271.683C99.6523 272.49 99.1901 273.128 98.5781 273.597C97.9727 274.066 97.2305 274.3 96.3516 274.3C95.4661 274.3 94.7305 274.085 94.1445 273.656C93.5651 273.219 93.1126 272.62 92.7871 271.859C92.4616 271.097 92.237 270.228 92.1133 269.251V268.558C92.237 267.516 92.4616 266.608 92.7871 265.833C93.1126 265.052 93.5651 264.443 94.1445 264.007C94.724 263.564 95.4499 263.343 96.3223 263.343C97.2142 263.343 97.9661 263.568 98.5781 264.017C99.1901 264.466 99.6523 265.094 99.9648 265.902C100.284 266.709 100.443 267.647 100.443 268.714V268.919ZM98.0215 268.714C98.0215 268.083 97.9401 267.51 97.7773 266.995C97.6211 266.481 97.3672 266.074 97.0156 265.775C96.6706 265.475 96.2181 265.326 95.6582 265.326C95.2546 265.326 94.9062 265.394 94.6133 265.531C94.3203 265.661 94.0729 265.846 93.8711 266.087C93.6758 266.328 93.5228 266.615 93.4121 266.947C93.3014 267.272 93.2233 267.63 93.1777 268.021V269.788C93.2559 270.257 93.3861 270.687 93.5684 271.078C93.7507 271.468 94.0111 271.781 94.3496 272.015C94.6947 272.243 95.1374 272.357 95.6777 272.357C96.2376 272.357 96.6901 272.201 97.0352 271.888C97.3802 271.569 97.6309 271.152 97.7871 270.638C97.9434 270.117 98.0215 269.544 98.0215 268.919V268.714ZM104.994 274.105H102.572V263.538H104.994V274.105ZM102.416 260.775C102.416 260.404 102.536 260.098 102.777 259.857C103.018 259.609 103.354 259.486 103.783 259.486C104.213 259.486 104.551 259.609 104.799 259.857C105.046 260.098 105.17 260.404 105.17 260.775C105.17 261.139 105.046 261.445 104.799 261.693C104.551 261.934 104.213 262.054 103.783 262.054C103.354 262.054 103.018 261.934 102.777 261.693C102.536 261.445 102.416 261.139 102.416 260.775ZM113.969 259.105H116.391V274.105H114.193L113.969 271.888V259.105ZM107.113 268.734C107.113 267.666 107.279 266.729 107.611 265.921C107.95 265.107 108.428 264.476 109.047 264.027C109.665 263.571 110.408 263.343 111.273 263.343C112.126 263.343 112.839 263.564 113.412 264.007C113.985 264.45 114.434 265.065 114.76 265.853C115.092 266.634 115.313 267.542 115.424 268.578V269.144C115.313 270.147 115.095 271.035 114.77 271.81C114.444 272.585 113.992 273.193 113.412 273.636C112.839 274.079 112.12 274.3 111.254 274.3C110.401 274.3 109.665 274.069 109.047 273.607C108.428 273.138 107.95 272.5 107.611 271.693C107.279 270.885 107.113 269.967 107.113 268.939V268.734ZM109.535 268.939C109.535 269.564 109.613 270.134 109.77 270.648C109.926 271.156 110.173 271.563 110.512 271.869C110.857 272.168 111.309 272.318 111.869 272.318C112.396 272.318 112.829 272.204 113.168 271.976C113.513 271.742 113.78 271.426 113.969 271.029C114.164 270.632 114.298 270.186 114.369 269.691V268.04C114.324 267.65 114.242 267.288 114.125 266.956C114.008 266.624 113.848 266.338 113.646 266.097C113.451 265.856 113.207 265.667 112.914 265.531C112.621 265.394 112.279 265.326 111.889 265.326C111.329 265.326 110.873 265.479 110.521 265.785C110.176 266.084 109.926 266.494 109.77 267.015C109.613 267.529 109.535 268.102 109.535 268.734V268.939ZM124.77 266.966C124.77 266.419 124.617 265.983 124.311 265.658C124.011 265.332 123.555 265.169 122.943 265.169C122.579 265.169 122.26 265.234 121.986 265.365C121.713 265.488 121.501 265.658 121.352 265.872C121.202 266.087 121.127 266.331 121.127 266.605H118.705C118.705 266.038 118.884 265.508 119.242 265.013C119.6 264.512 120.105 264.108 120.756 263.802C121.413 263.496 122.188 263.343 123.08 263.343C123.874 263.343 124.581 263.477 125.199 263.744C125.818 264.01 126.303 264.414 126.654 264.954C127.012 265.495 127.191 266.172 127.191 266.986V271.644C127.191 272.139 127.227 272.575 127.299 272.953C127.37 273.33 127.471 273.659 127.602 273.939V274.105H125.121C125.01 273.851 124.923 273.522 124.857 273.119C124.799 272.715 124.77 272.321 124.77 271.937V266.966ZM125.141 269.163H123.48C122.621 269.163 121.973 269.323 121.537 269.642C121.107 269.954 120.893 270.381 120.893 270.921C120.893 271.338 121.036 271.686 121.322 271.966C121.609 272.24 122.012 272.376 122.533 272.376C123.008 272.376 123.422 272.282 123.773 272.093C124.132 271.898 124.411 271.66 124.613 271.38C124.815 271.094 124.919 270.827 124.926 270.579L125.697 271.663C125.619 271.93 125.486 272.217 125.297 272.523C125.115 272.822 124.87 273.109 124.564 273.382C124.265 273.649 123.907 273.87 123.49 274.046C123.08 274.216 122.602 274.3 122.055 274.3C121.365 274.3 120.749 274.163 120.209 273.89C119.669 273.617 119.242 273.242 118.93 272.767C118.624 272.285 118.471 271.745 118.471 271.146C118.471 270.026 118.891 269.167 119.73 268.568C120.57 267.969 121.762 267.669 123.305 267.669H125.121L125.141 269.163Z" fill="#0F193E"/>
<circle cx="268.32" cy="268.105" r="75" fill="#F2D30F" stroke="#273566" stroke-width="2"/>
<path d="M232.133 267.367C232.133 268.805 231.885 270.042 231.391 271.078C230.896 272.113 230.206 272.91 229.32 273.47C228.441 274.023 227.41 274.3 226.225 274.3C225.066 274.3 224.037 274.023 223.139 273.47C222.247 272.91 221.547 272.113 221.039 271.078C220.538 270.042 220.287 268.805 220.287 267.367V266.634C220.287 265.195 220.538 263.958 221.039 262.923C221.54 261.882 222.237 261.084 223.129 260.531C224.021 259.971 225.046 259.691 226.205 259.691C227.39 259.691 228.425 259.971 229.311 260.531C230.196 261.084 230.886 261.882 231.381 262.923C231.882 263.958 232.133 265.195 232.133 266.634V267.367ZM229.604 266.615C229.604 265.566 229.47 264.684 229.203 263.968C228.936 263.245 228.549 262.702 228.041 262.337C227.533 261.966 226.921 261.781 226.205 261.781C225.502 261.781 224.896 261.966 224.389 262.337C223.887 262.702 223.5 263.245 223.227 263.968C222.96 264.684 222.826 265.566 222.826 266.615V267.367C222.826 268.415 222.963 269.3 223.236 270.023C223.51 270.745 223.9 271.292 224.408 271.663C224.916 272.035 225.521 272.22 226.225 272.22C226.947 272.22 227.559 272.035 228.061 271.663C228.568 271.292 228.952 270.745 229.213 270.023C229.473 269.3 229.604 268.415 229.604 267.367V266.615ZM236.752 259.105V271.82L236.518 274.105H234.33V259.105H236.752ZM243.627 268.929C243.627 269.971 243.471 270.895 243.158 271.703C242.852 272.51 242.393 273.145 241.781 273.607C241.176 274.069 240.421 274.3 239.516 274.3C238.637 274.3 237.908 274.079 237.328 273.636C236.755 273.193 236.309 272.585 235.99 271.81C235.678 271.029 235.463 270.13 235.346 269.115V268.538C235.463 267.516 235.678 266.618 235.99 265.843C236.309 265.062 236.755 264.45 237.328 264.007C237.901 263.564 238.624 263.343 239.496 263.343C240.408 263.343 241.169 263.571 241.781 264.027C242.393 264.482 242.852 265.114 243.158 265.921C243.471 266.729 243.627 267.663 243.627 268.724V268.929ZM241.205 268.724C241.205 268.106 241.133 267.539 240.99 267.025C240.854 266.51 240.616 266.1 240.277 265.794C239.945 265.482 239.483 265.326 238.891 265.326C238.48 265.326 238.129 265.394 237.836 265.531C237.543 265.667 237.296 265.856 237.094 266.097C236.898 266.338 236.745 266.621 236.635 266.947C236.524 267.272 236.449 267.624 236.41 268.001V269.661C236.469 270.15 236.589 270.596 236.771 270.999C236.954 271.403 237.221 271.725 237.572 271.966C237.924 272.201 238.37 272.318 238.91 272.318C239.49 272.318 239.945 272.168 240.277 271.869C240.609 271.569 240.847 271.165 240.99 270.658C241.133 270.143 241.205 269.567 241.205 268.929V268.724ZM248.002 274.105H245.58V263.538H247.885L248.002 265.609V274.105ZM251.186 265.765C251.036 265.739 250.876 265.719 250.707 265.706C250.544 265.693 250.382 265.687 250.219 265.687C249.685 265.687 249.239 265.785 248.881 265.98C248.529 266.169 248.262 266.442 248.08 266.8C247.898 267.152 247.79 267.568 247.758 268.05L247.201 268.06C247.201 267.168 247.318 266.367 247.553 265.658C247.787 264.948 248.139 264.385 248.607 263.968C249.076 263.551 249.662 263.343 250.365 263.343C250.502 263.343 250.655 263.356 250.824 263.382C250.993 263.408 251.12 263.438 251.205 263.47L251.186 265.765ZM258.422 266.966C258.422 266.419 258.269 265.983 257.963 265.658C257.663 265.332 257.208 265.169 256.596 265.169C256.231 265.169 255.912 265.234 255.639 265.365C255.365 265.488 255.154 265.658 255.004 265.872C254.854 266.087 254.779 266.331 254.779 266.605H252.357C252.357 266.038 252.536 265.508 252.895 265.013C253.253 264.512 253.757 264.108 254.408 263.802C255.066 263.496 255.84 263.343 256.732 263.343C257.527 263.343 258.233 263.477 258.852 263.744C259.47 264.01 259.955 264.414 260.307 264.954C260.665 265.495 260.844 266.172 260.844 266.986V271.644C260.844 272.139 260.88 272.575 260.951 272.953C261.023 273.33 261.124 273.659 261.254 273.939V274.105H258.773C258.663 273.851 258.575 273.522 258.51 273.119C258.451 272.715 258.422 272.321 258.422 271.937V266.966ZM258.793 269.163H257.133C256.273 269.163 255.626 269.323 255.189 269.642C254.76 269.954 254.545 270.381 254.545 270.921C254.545 271.338 254.688 271.686 254.975 271.966C255.261 272.24 255.665 272.376 256.186 272.376C256.661 272.376 257.074 272.282 257.426 272.093C257.784 271.898 258.064 271.66 258.266 271.38C258.467 271.094 258.572 270.827 258.578 270.579L259.35 271.663C259.271 271.93 259.138 272.217 258.949 272.523C258.767 272.822 258.523 273.109 258.217 273.382C257.917 273.649 257.559 273.87 257.143 274.046C256.732 274.216 256.254 274.3 255.707 274.3C255.017 274.3 254.402 274.163 253.861 273.89C253.321 273.617 252.895 273.242 252.582 272.767C252.276 272.285 252.123 271.745 252.123 271.146C252.123 270.026 252.543 269.167 253.383 268.568C254.223 267.969 255.414 267.669 256.957 267.669H258.773L258.793 269.163ZM270.854 274.105H268.432V259.105H270.854V274.105ZM275.99 274.105H273.568V263.538H275.99V274.105ZM273.412 260.775C273.412 260.404 273.533 260.098 273.773 259.857C274.014 259.609 274.35 259.486 274.779 259.486C275.209 259.486 275.548 259.609 275.795 259.857C276.042 260.098 276.166 260.404 276.166 260.775C276.166 261.139 276.042 261.445 275.795 261.693C275.548 261.934 275.209 262.054 274.779 262.054C274.35 262.054 274.014 261.934 273.773 261.693C273.533 261.445 273.412 261.139 273.412 260.775ZM280.971 274.105H278.539V263.538H280.824L280.971 265.697V274.105ZM279.75 268.451C279.75 267.467 279.906 266.592 280.219 265.824C280.538 265.055 281.01 264.45 281.635 264.007C282.26 263.564 283.038 263.343 283.969 263.343C284.926 263.343 285.714 263.633 286.332 264.212C286.951 264.792 287.26 265.742 287.26 267.064V274.105H284.838V267.288C284.838 266.794 284.76 266.403 284.604 266.117C284.454 265.83 284.239 265.628 283.959 265.511C283.686 265.387 283.357 265.326 282.973 265.326C282.536 265.326 282.165 265.407 281.859 265.57C281.56 265.726 281.316 265.947 281.127 266.234C280.938 266.52 280.798 266.852 280.707 267.23C280.622 267.607 280.58 268.011 280.58 268.441L279.75 268.451ZM285.971 268.109C285.977 267.243 286.137 266.449 286.449 265.726C286.762 265.003 287.224 264.427 287.836 263.997C288.448 263.561 289.203 263.343 290.102 263.343C290.818 263.343 291.433 263.477 291.947 263.744C292.462 264.004 292.859 264.424 293.139 265.003C293.419 265.576 293.559 266.338 293.559 267.288V274.105H291.127V267.269C291.127 266.755 291.049 266.357 290.893 266.078C290.743 265.791 290.528 265.596 290.248 265.492C289.975 265.381 289.649 265.326 289.271 265.326C288.913 265.326 288.598 265.391 288.324 265.521C288.057 265.651 287.833 265.833 287.65 266.068C287.475 266.296 287.338 266.566 287.24 266.878C287.149 267.184 287.104 267.516 287.104 267.874L285.971 268.109ZM298.373 278.167H295.951V263.538H298.188L298.373 265.57V278.167ZM305.229 268.919C305.229 269.948 305.069 270.869 304.75 271.683C304.438 272.49 303.975 273.128 303.363 273.597C302.758 274.066 302.016 274.3 301.137 274.3C300.251 274.3 299.516 274.085 298.93 273.656C298.35 273.219 297.898 272.62 297.572 271.859C297.247 271.097 297.022 270.228 296.898 269.251V268.558C297.022 267.516 297.247 266.608 297.572 265.833C297.898 265.052 298.35 264.443 298.93 264.007C299.509 263.564 300.235 263.343 301.107 263.343C301.999 263.343 302.751 263.568 303.363 264.017C303.975 264.466 304.438 265.094 304.75 265.902C305.069 266.709 305.229 267.647 305.229 268.714V268.919ZM302.807 268.714C302.807 268.083 302.725 267.51 302.562 266.995C302.406 266.481 302.152 266.074 301.801 265.775C301.456 265.475 301.003 265.326 300.443 265.326C300.04 265.326 299.691 265.394 299.398 265.531C299.105 265.661 298.858 265.846 298.656 266.087C298.461 266.328 298.308 266.615 298.197 266.947C298.087 267.272 298.008 267.63 297.963 268.021V269.788C298.041 270.257 298.171 270.687 298.354 271.078C298.536 271.468 298.796 271.781 299.135 272.015C299.48 272.243 299.923 272.357 300.463 272.357C301.023 272.357 301.475 272.201 301.82 271.888C302.165 271.569 302.416 271.152 302.572 270.638C302.729 270.117 302.807 269.544 302.807 268.919V268.714ZM313.129 266.966C313.129 266.419 312.976 265.983 312.67 265.658C312.37 265.332 311.915 265.169 311.303 265.169C310.938 265.169 310.619 265.234 310.346 265.365C310.072 265.488 309.861 265.658 309.711 265.872C309.561 266.087 309.486 266.331 309.486 266.605H307.064C307.064 266.038 307.243 265.508 307.602 265.013C307.96 264.512 308.464 264.108 309.115 263.802C309.773 263.496 310.548 263.343 311.439 263.343C312.234 263.343 312.94 263.477 313.559 263.744C314.177 264.01 314.662 264.414 315.014 264.954C315.372 265.495 315.551 266.172 315.551 266.986V271.644C315.551 272.139 315.587 272.575 315.658 272.953C315.73 273.33 315.831 273.659 315.961 273.939V274.105H313.48C313.37 273.851 313.282 273.522 313.217 273.119C313.158 272.715 313.129 272.321 313.129 271.937V266.966ZM313.5 269.163H311.84C310.98 269.163 310.333 269.323 309.896 269.642C309.467 269.954 309.252 270.381 309.252 270.921C309.252 271.338 309.395 271.686 309.682 271.966C309.968 272.24 310.372 272.376 310.893 272.376C311.368 272.376 311.781 272.282 312.133 272.093C312.491 271.898 312.771 271.66 312.973 271.38C313.174 271.094 313.279 270.827 313.285 270.579L314.057 271.663C313.979 271.93 313.845 272.217 313.656 272.523C313.474 272.822 313.23 273.109 312.924 273.382C312.624 273.649 312.266 273.87 311.85 274.046C311.439 274.216 310.961 274.3 310.414 274.3C309.724 274.3 309.109 274.163 308.568 273.89C308.028 273.617 307.602 273.242 307.289 272.767C306.983 272.285 306.83 271.745 306.83 271.146C306.83 270.026 307.25 269.167 308.09 268.568C308.93 267.969 310.121 267.669 311.664 267.669H313.48L313.5 269.163Z" fill="#0F193E"/>
<circle cx="460.32" cy="268.105" r="75" fill="#273566" stroke="#6D7AA6" stroke-width="2"/>
<path d="M450.32 278.105L470.32 258.105" stroke="white" stroke-width="3" stroke-linecap="round" stroke-linejoin="round"/>
<path d="M450.32 258.105H470.32V278.105" stroke="white" stroke-width="3" stroke-linecap="round" stroke-linejoin="round"/>
<path d="M343.32 76.1049C343.32 117.526 309.742 151.105 268.32 151.105C226.899 151.105 193.32 117.526 193.32 76.1049C193.32 34.6835 226.899 1.10486 268.32 1.10486C309.742 1.10486 343.32 34.6835 343.32 76.1049Z" fill="#F2D30F" stroke="#273566" stroke-width="2"/>
<path d="M229.072 82.1049H221.562V80.0834H229.072V82.1049ZM222.266 82.1049H219.746V67.8861H222.266V82.1049ZM228.086 75.7767H221.562V73.7845H228.086V75.7767ZM229.023 69.9174H221.562V67.8861H229.023V69.9174ZM235.01 80.3568C235.387 80.3568 235.729 80.2819 236.035 80.1322C236.341 79.976 236.585 79.7644 236.768 79.4974C236.95 79.2305 237.051 78.9245 237.07 78.5795H239.355C239.336 79.2761 239.131 79.9043 238.74 80.4642C238.35 81.0241 237.832 81.4701 237.188 81.8021C236.543 82.1342 235.824 82.3002 235.029 82.3002C233.955 82.3002 233.06 82.0625 232.344 81.5873C231.634 81.1055 231.104 80.4642 230.752 79.6635C230.4 78.8562 230.225 77.9642 230.225 76.9877V76.6556C230.225 75.6791 230.4 74.7904 230.752 73.9896C231.104 73.1823 231.634 72.5411 232.344 72.0658C233.06 71.584 233.955 71.3431 235.029 71.3431C235.882 71.3431 236.628 71.5124 237.266 71.851C237.91 72.183 238.415 72.6485 238.779 73.2474C239.144 73.8464 239.336 74.5463 239.355 75.347H237.07C237.051 74.9694 236.956 74.6244 236.787 74.3119C236.624 73.9994 236.39 73.752 236.084 73.5697C235.785 73.3809 235.423 73.2865 235 73.2865C234.375 73.2865 233.89 73.4493 233.545 73.7748C233.206 74.1003 232.972 74.5202 232.842 75.0345C232.712 75.5489 232.646 76.0892 232.646 76.6556V76.9877C232.646 77.5606 232.708 78.1042 232.832 78.6185C232.962 79.1329 233.2 79.5528 233.545 79.8783C233.89 80.1973 234.378 80.3568 235.01 80.3568ZM240.693 76.724C240.693 75.6954 240.889 74.7774 241.279 73.9701C241.67 73.1628 242.23 72.5248 242.959 72.056C243.695 71.5808 244.577 71.3431 245.605 71.3431C246.647 71.3431 247.536 71.5808 248.271 72.056C249.007 72.5248 249.567 73.1628 249.951 73.9701C250.342 74.7774 250.537 75.6954 250.537 76.724V76.9291C250.537 77.9512 250.342 78.8692 249.951 79.683C249.567 80.4903 249.007 81.1283 248.271 81.597C247.542 82.0658 246.66 82.3002 245.625 82.3002C244.59 82.3002 243.704 82.0658 242.969 81.597C242.233 81.1283 241.67 80.4903 241.279 79.683C240.889 78.8692 240.693 77.9512 240.693 76.9291V76.724ZM243.115 76.9291C243.115 77.5541 243.203 78.127 243.379 78.6478C243.555 79.1622 243.825 79.5756 244.189 79.8881C244.561 80.2006 245.039 80.3568 245.625 80.3568C246.204 80.3568 246.676 80.2006 247.041 79.8881C247.412 79.5756 247.682 79.1622 247.852 78.6478C248.027 78.127 248.115 77.5541 248.115 76.9291V76.724C248.115 76.1055 248.027 75.5358 247.852 75.015C247.682 74.4942 247.412 74.0775 247.041 73.765C246.67 73.446 246.191 73.2865 245.605 73.2865C245.026 73.2865 244.551 73.446 244.18 73.765C243.815 74.0775 243.545 74.4942 243.369 75.015C243.2 75.5358 243.115 76.1055 243.115 76.724V76.9291ZM254.902 82.1049H252.48V71.5385H254.756L254.902 73.7943V82.1049ZM253.691 76.4506C253.698 75.4284 253.877 74.5365 254.229 73.7748C254.58 73.0066 255.072 72.4108 255.703 71.9877C256.335 71.558 257.07 71.3431 257.91 71.3431C258.594 71.3431 259.186 71.4733 259.688 71.7338C260.189 71.9877 260.579 72.4043 260.859 72.9838C261.139 73.5567 261.279 74.3282 261.279 75.2982V82.1049H258.848V75.2787C258.848 74.7904 258.776 74.403 258.633 74.1166C258.496 73.8301 258.288 73.6283 258.008 73.5111C257.734 73.3874 257.399 73.3256 257.002 73.3256C256.598 73.3256 256.24 73.4069 255.928 73.5697C255.622 73.726 255.358 73.9473 255.137 74.2338C254.922 74.5202 254.756 74.8523 254.639 75.2299C254.528 75.6075 254.473 76.0111 254.473 76.4408L253.691 76.4506ZM263.213 76.724C263.213 75.6954 263.408 74.7774 263.799 73.9701C264.189 73.1628 264.749 72.5248 265.479 72.056C266.214 71.5808 267.096 71.3431 268.125 71.3431C269.167 71.3431 270.055 71.5808 270.791 72.056C271.527 72.5248 272.087 73.1628 272.471 73.9701C272.861 74.7774 273.057 75.6954 273.057 76.724V76.9291C273.057 77.9512 272.861 78.8692 272.471 79.683C272.087 80.4903 271.527 81.1283 270.791 81.597C270.062 82.0658 269.18 82.3002 268.145 82.3002C267.109 82.3002 266.224 82.0658 265.488 81.597C264.753 81.1283 264.189 80.4903 263.799 79.683C263.408 78.8692 263.213 77.9512 263.213 76.9291V76.724ZM265.635 76.9291C265.635 77.5541 265.723 78.127 265.898 78.6478C266.074 79.1622 266.344 79.5756 266.709 79.8881C267.08 80.2006 267.559 80.3568 268.145 80.3568C268.724 80.3568 269.196 80.2006 269.561 79.8881C269.932 79.5756 270.202 79.1622 270.371 78.6478C270.547 78.127 270.635 77.5541 270.635 76.9291V76.724C270.635 76.1055 270.547 75.5358 270.371 75.015C270.202 74.4942 269.932 74.0775 269.561 73.765C269.189 73.446 268.711 73.2865 268.125 73.2865C267.546 73.2865 267.07 73.446 266.699 73.765C266.335 74.0775 266.064 74.4942 265.889 75.015C265.719 75.5358 265.635 76.1055 265.635 76.724V76.9291ZM271.523 69.8099V69.9174H269.58L268.086 68.4037L266.602 69.9174H264.688V69.7806L267.373 67.1049H268.799L271.523 69.8099ZM277.451 82.1049H275.02V71.5385H277.305L277.451 73.6967V82.1049ZM276.23 76.4506C276.23 75.4675 276.387 74.5918 276.699 73.8236C277.018 73.0554 277.49 72.4499 278.115 72.0072C278.74 71.5645 279.518 71.3431 280.449 71.3431C281.406 71.3431 282.194 71.6329 282.812 72.2123C283.431 72.7917 283.74 73.7422 283.74 75.0638V82.1049H281.318V75.2885C281.318 74.7937 281.24 74.403 281.084 74.1166C280.934 73.8301 280.719 73.6283 280.439 73.5111C280.166 73.3874 279.837 73.3256 279.453 73.3256C279.017 73.3256 278.646 73.4069 278.34 73.5697C278.04 73.726 277.796 73.9473 277.607 74.2338C277.419 74.5202 277.279 74.8523 277.188 75.2299C277.103 75.6075 277.061 76.0111 277.061 76.4408L276.23 76.4506ZM282.451 76.1088C282.458 75.2429 282.617 74.4486 282.93 73.726C283.242 73.0033 283.704 72.4271 284.316 71.9974C284.928 71.5612 285.684 71.3431 286.582 71.3431C287.298 71.3431 287.913 71.4766 288.428 71.7435C288.942 72.0039 289.339 72.4239 289.619 73.0033C289.899 73.5762 290.039 74.3379 290.039 75.2885V82.1049H287.607V75.2689C287.607 74.7546 287.529 74.3575 287.373 74.0775C287.223 73.7911 287.008 73.5957 286.729 73.4916C286.455 73.3809 286.13 73.3256 285.752 73.3256C285.394 73.3256 285.078 73.3907 284.805 73.5209C284.538 73.6511 284.313 73.8334 284.131 74.0677C283.955 74.2956 283.818 74.5658 283.721 74.8783C283.63 75.1843 283.584 75.5163 283.584 75.8744L282.451 76.1088ZM295.01 82.1049H292.588V71.5385H295.01V82.1049ZM292.432 68.7748C292.432 68.4037 292.552 68.0977 292.793 67.8568C293.034 67.6094 293.369 67.4857 293.799 67.4857C294.229 67.4857 294.567 67.6094 294.814 67.8568C295.062 68.0977 295.186 68.4037 295.186 68.7748C295.186 69.1394 295.062 69.4454 294.814 69.6927C294.567 69.9336 294.229 70.0541 293.799 70.0541C293.369 70.0541 293.034 69.9336 292.793 69.6927C292.552 69.4454 292.432 69.1394 292.432 68.7748ZM301.904 80.3568C302.282 80.3568 302.624 80.2819 302.93 80.1322C303.236 79.976 303.48 79.7644 303.662 79.4974C303.844 79.2305 303.945 78.9245 303.965 78.5795H306.25C306.23 79.2761 306.025 79.9043 305.635 80.4642C305.244 81.0241 304.727 81.4701 304.082 81.8021C303.438 82.1342 302.718 82.3002 301.924 82.3002C300.85 82.3002 299.954 82.0625 299.238 81.5873C298.529 81.1055 297.998 80.4642 297.646 79.6635C297.295 78.8562 297.119 77.9642 297.119 76.9877V76.6556C297.119 75.6791 297.295 74.7904 297.646 73.9896C297.998 73.1823 298.529 72.5411 299.238 72.0658C299.954 71.584 300.85 71.3431 301.924 71.3431C302.777 71.3431 303.522 71.5124 304.16 71.851C304.805 72.183 305.309 72.6485 305.674 73.2474C306.038 73.8464 306.23 74.5463 306.25 75.347H303.965C303.945 74.9694 303.851 74.6244 303.682 74.3119C303.519 73.9994 303.285 73.752 302.979 73.5697C302.679 73.3809 302.318 73.2865 301.895 73.2865C301.27 73.2865 300.785 73.4493 300.439 73.7748C300.101 74.1003 299.867 74.5202 299.736 75.0345C299.606 75.5489 299.541 76.0892 299.541 76.6556V76.9877C299.541 77.5606 299.603 78.1042 299.727 78.6185C299.857 79.1329 300.094 79.5528 300.439 79.8783C300.785 80.1973 301.273 80.3568 301.904 80.3568ZM307.588 76.724C307.588 75.6954 307.783 74.7774 308.174 73.9701C308.564 73.1628 309.124 72.5248 309.854 72.056C310.589 71.5808 311.471 71.3431 312.5 71.3431C313.542 71.3431 314.43 71.5808 315.166 72.056C315.902 72.5248 316.462 73.1628 316.846 73.9701C317.236 74.7774 317.432 75.6954 317.432 76.724V76.9291C317.432 77.9512 317.236 78.8692 316.846 79.683C316.462 80.4903 315.902 81.1283 315.166 81.597C314.437 82.0658 313.555 82.3002 312.52 82.3002C311.484 82.3002 310.599 82.0658 309.863 81.597C309.128 81.1283 308.564 80.4903 308.174 79.683C307.783 78.8692 307.588 77.9512 307.588 76.9291V76.724ZM310.01 76.9291C310.01 77.5541 310.098 78.127 310.273 78.6478C310.449 79.1622 310.719 79.5756 311.084 79.8881C311.455 80.2006 311.934 80.3568 312.52 80.3568C313.099 80.3568 313.571 80.2006 313.936 79.8881C314.307 79.5756 314.577 79.1622 314.746 78.6478C314.922 78.127 315.01 77.5541 315.01 76.9291V76.724C315.01 76.1055 314.922 75.5358 314.746 75.015C314.577 74.4942 314.307 74.0775 313.936 73.765C313.564 73.446 313.086 73.2865 312.5 73.2865C311.921 73.2865 311.445 73.446 311.074 73.765C310.71 74.0775 310.439 74.4942 310.264 75.015C310.094 75.5358 310.01 76.1055 310.01 76.724V76.9291Z" fill="#0F193E"/>
<path d="M535.32 76.1049C535.32 117.526 501.742 151.105 460.32 151.105C418.899 151.105 385.32 117.526 385.32 76.1049C385.32 34.6835 418.899 1.10486 460.32 1.10486C501.742 1.10486 535.32 34.6835 535.32 76.1049Z" fill="#F2D30F" stroke="#273566" stroke-width="2"/>
<path d="M427.072 82.1049H419.562V80.0834H427.072V82.1049ZM420.266 82.1049H417.746V67.8861H420.266V82.1049ZM426.086 75.7767H419.562V73.7845H426.086V75.7767ZM427.023 69.9174H419.562V67.8861H427.023V69.9174ZM433.01 80.3568C433.387 80.3568 433.729 80.2819 434.035 80.1322C434.341 79.976 434.585 79.7644 434.768 79.4974C434.95 79.2305 435.051 78.9245 435.07 78.5795H437.355C437.336 79.2761 437.131 79.9043 436.74 80.4642C436.35 81.0241 435.832 81.4701 435.188 81.8021C434.543 82.1342 433.824 82.3002 433.029 82.3002C431.955 82.3002 431.06 82.0625 430.344 81.5873C429.634 81.1055 429.104 80.4642 428.752 79.6635C428.4 78.8562 428.225 77.9642 428.225 76.9877V76.6556C428.225 75.6791 428.4 74.7904 428.752 73.9896C429.104 73.1823 429.634 72.5411 430.344 72.0658C431.06 71.584 431.955 71.3431 433.029 71.3431C433.882 71.3431 434.628 71.5124 435.266 71.851C435.91 72.183 436.415 72.6485 436.779 73.2474C437.144 73.8464 437.336 74.5463 437.355 75.347H435.07C435.051 74.9694 434.956 74.6244 434.787 74.3119C434.624 73.9994 434.39 73.752 434.084 73.5697C433.785 73.3809 433.423 73.2865 433 73.2865C432.375 73.2865 431.89 73.4493 431.545 73.7748C431.206 74.1003 430.972 74.5202 430.842 75.0345C430.712 75.5489 430.646 76.0892 430.646 76.6556V76.9877C430.646 77.5606 430.708 78.1042 430.832 78.6185C430.962 79.1329 431.2 79.5528 431.545 79.8783C431.89 80.1973 432.378 80.3568 433.01 80.3568ZM438.693 76.724C438.693 75.6954 438.889 74.7774 439.279 73.9701C439.67 73.1628 440.23 72.5248 440.959 72.056C441.695 71.5808 442.577 71.3431 443.605 71.3431C444.647 71.3431 445.536 71.5808 446.271 72.056C447.007 72.5248 447.567 73.1628 447.951 73.9701C448.342 74.7774 448.537 75.6954 448.537 76.724V76.9291C448.537 77.9512 448.342 78.8692 447.951 79.683C447.567 80.4903 447.007 81.1283 446.271 81.597C445.542 82.0658 444.66 82.3002 443.625 82.3002C442.59 82.3002 441.704 82.0658 440.969 81.597C440.233 81.1283 439.67 80.4903 439.279 79.683C438.889 78.8692 438.693 77.9512 438.693 76.9291V76.724ZM441.115 76.9291C441.115 77.5541 441.203 78.127 441.379 78.6478C441.555 79.1622 441.825 79.5756 442.189 79.8881C442.561 80.2006 443.039 80.3568 443.625 80.3568C444.204 80.3568 444.676 80.2006 445.041 79.8881C445.412 79.5756 445.682 79.1622 445.852 78.6478C446.027 78.127 446.115 77.5541 446.115 76.9291V76.724C446.115 76.1055 446.027 75.5358 445.852 75.015C445.682 74.4942 445.412 74.0775 445.041 73.765C444.67 73.446 444.191 73.2865 443.605 73.2865C443.026 73.2865 442.551 73.446 442.18 73.765C441.815 74.0775 441.545 74.4942 441.369 75.015C441.2 75.5358 441.115 76.1055 441.115 76.724V76.9291ZM453.088 82.1049H450.666V67.1049H453.088V82.1049ZM455.197 76.724C455.197 75.6954 455.393 74.7774 455.783 73.9701C456.174 73.1628 456.734 72.5248 457.463 72.056C458.199 71.5808 459.081 71.3431 460.109 71.3431C461.151 71.3431 462.04 71.5808 462.775 72.056C463.511 72.5248 464.071 73.1628 464.455 73.9701C464.846 74.7774 465.041 75.6954 465.041 76.724V76.9291C465.041 77.9512 464.846 78.8692 464.455 79.683C464.071 80.4903 463.511 81.1283 462.775 81.597C462.046 82.0658 461.164 82.3002 460.129 82.3002C459.094 82.3002 458.208 82.0658 457.473 81.597C456.737 81.1283 456.174 80.4903 455.783 79.683C455.393 78.8692 455.197 77.9512 455.197 76.9291V76.724ZM457.619 76.9291C457.619 77.5541 457.707 78.127 457.883 78.6478C458.059 79.1622 458.329 79.5756 458.693 79.8881C459.064 80.2006 459.543 80.3568 460.129 80.3568C460.708 80.3568 461.18 80.2006 461.545 79.8881C461.916 79.5756 462.186 79.1622 462.355 78.6478C462.531 78.127 462.619 77.5541 462.619 76.9291V76.724C462.619 76.1055 462.531 75.5358 462.355 75.015C462.186 74.4942 461.916 74.0775 461.545 73.765C461.174 73.446 460.695 73.2865 460.109 73.2865C459.53 73.2865 459.055 73.446 458.684 73.765C458.319 74.0775 458.049 74.4942 457.873 75.015C457.704 75.5358 457.619 76.1055 457.619 76.724V76.9291ZM460.773 67.1049H463.498L460.822 70.0638H458.869L460.773 67.1049ZM475.969 71.5385V81.8021C475.969 82.7526 475.764 83.5599 475.354 84.224C474.943 84.8946 474.374 85.4024 473.645 85.7474C472.922 86.0925 472.082 86.265 471.125 86.265C470.721 86.265 470.272 86.2064 469.777 86.0892C469.289 85.9786 468.814 85.7963 468.352 85.5424C467.889 85.2885 467.502 84.9564 467.189 84.5463L468.322 83.0814C468.7 83.5176 469.113 83.8399 469.562 84.0482C470.018 84.2631 470.497 84.3705 470.998 84.3705C471.786 84.3705 472.404 84.1524 472.854 83.7162C473.309 83.28 473.537 82.655 473.537 81.8412V73.9408L473.762 71.5385H475.969ZM466.594 76.7338C466.594 75.6661 466.763 74.7286 467.102 73.9213C467.447 73.1075 467.935 72.476 468.566 72.0267C469.204 71.571 469.96 71.3431 470.832 71.3431C471.522 71.3431 472.111 71.4701 472.6 71.724C473.088 71.9714 473.492 72.3295 473.811 72.7982C474.136 73.2605 474.39 73.8138 474.572 74.4584C474.761 75.0964 474.901 75.8028 474.992 76.5775V77.1439C474.875 78.1465 474.657 79.0352 474.338 79.8099C474.019 80.5847 473.57 81.1934 472.99 81.6361C472.417 82.0788 471.691 82.3002 470.812 82.3002C469.953 82.3002 469.208 82.0691 468.576 81.6068C467.945 81.1381 467.456 80.5 467.111 79.6927C466.766 78.8855 466.594 77.9675 466.594 76.9388V76.7338ZM469.016 76.9388C469.016 77.5638 469.1 78.1335 469.27 78.6478C469.439 79.1556 469.699 79.5625 470.051 79.8685C470.409 80.168 470.868 80.3177 471.428 80.3177C471.975 80.3177 472.421 80.2038 472.766 79.976C473.111 79.7416 473.378 79.4258 473.566 79.0287C473.762 78.6316 473.895 78.1856 473.967 77.6908V76.0404C473.928 75.6498 473.85 75.2885 473.732 74.9564C473.622 74.6244 473.462 74.3379 473.254 74.097C473.052 73.8562 472.801 73.6674 472.502 73.5306C472.202 73.3939 471.851 73.3256 471.447 73.3256C470.887 73.3256 470.428 73.4786 470.07 73.7845C469.712 74.084 469.445 74.4942 469.27 75.015C469.1 75.5293 469.016 76.1023 469.016 76.7338V76.9388ZM480.939 82.1049H478.518V71.5385H480.939V82.1049ZM478.361 68.7748C478.361 68.4037 478.482 68.0977 478.723 67.8568C478.964 67.6094 479.299 67.4857 479.729 67.4857C480.158 67.4857 480.497 67.6094 480.744 67.8568C480.992 68.0977 481.115 68.4037 481.115 68.7748C481.115 69.1394 480.992 69.4454 480.744 69.6927C480.497 69.9336 480.158 70.0541 479.729 70.0541C479.299 70.0541 478.964 69.9336 478.723 69.6927C478.482 69.4454 478.361 69.1394 478.361 68.7748ZM487.834 80.3568C488.212 80.3568 488.553 80.2819 488.859 80.1322C489.165 79.976 489.41 79.7644 489.592 79.4974C489.774 79.2305 489.875 78.9245 489.895 78.5795H492.18C492.16 79.2761 491.955 79.9043 491.564 80.4642C491.174 81.0241 490.656 81.4701 490.012 81.8021C489.367 82.1342 488.648 82.3002 487.854 82.3002C486.779 82.3002 485.884 82.0625 485.168 81.5873C484.458 81.1055 483.928 80.4642 483.576 79.6635C483.225 78.8562 483.049 77.9642 483.049 76.9877V76.6556C483.049 75.6791 483.225 74.7904 483.576 73.9896C483.928 73.1823 484.458 72.5411 485.168 72.0658C485.884 71.584 486.779 71.3431 487.854 71.3431C488.706 71.3431 489.452 71.5124 490.09 71.851C490.734 72.183 491.239 72.6485 491.604 73.2474C491.968 73.8464 492.16 74.5463 492.18 75.347H489.895C489.875 74.9694 489.781 74.6244 489.611 74.3119C489.449 73.9994 489.214 73.752 488.908 73.5697C488.609 73.3809 488.247 73.2865 487.824 73.2865C487.199 73.2865 486.714 73.4493 486.369 73.7748C486.031 74.1003 485.796 74.5202 485.666 75.0345C485.536 75.5489 485.471 76.0892 485.471 76.6556V76.9877C485.471 77.5606 485.533 78.1042 485.656 78.6185C485.786 79.1329 486.024 79.5528 486.369 79.8783C486.714 80.1973 487.202 80.3568 487.834 80.3568ZM493.518 76.724C493.518 75.6954 493.713 74.7774 494.104 73.9701C494.494 73.1628 495.054 72.5248 495.783 72.056C496.519 71.5808 497.401 71.3431 498.43 71.3431C499.471 71.3431 500.36 71.5808 501.096 72.056C501.831 72.5248 502.391 73.1628 502.775 73.9701C503.166 74.7774 503.361 75.6954 503.361 76.724V76.9291C503.361 77.9512 503.166 78.8692 502.775 79.683C502.391 80.4903 501.831 81.1283 501.096 81.597C500.367 82.0658 499.484 82.3002 498.449 82.3002C497.414 82.3002 496.529 82.0658 495.793 81.597C495.057 81.1283 494.494 80.4903 494.104 79.683C493.713 78.8692 493.518 77.9512 493.518 76.9291V76.724ZM495.939 76.9291C495.939 77.5541 496.027 78.127 496.203 78.6478C496.379 79.1622 496.649 79.5756 497.014 79.8881C497.385 80.2006 497.863 80.3568 498.449 80.3568C499.029 80.3568 499.501 80.2006 499.865 79.8881C500.236 79.5756 500.507 79.1622 500.676 78.6478C500.852 78.127 500.939 77.5541 500.939 76.9291V76.724C500.939 76.1055 500.852 75.5358 500.676 75.015C500.507 74.4942 500.236 74.0775 499.865 73.765C499.494 73.446 499.016 73.2865 498.43 73.2865C497.85 73.2865 497.375 73.446 497.004 73.765C496.639 74.0775 496.369 74.4942 496.193 75.015C496.024 75.5358 495.939 76.1055 495.939 76.724V76.9291Z" fill="#0F193E"/>
<line x1="152.32" y1="76.1049" x2="192.32" y2="76.1049" stroke="#273566" stroke-width="2" stroke-dasharray="4 4"/>
<line x1="344.32" y1="76.1049" x2="384.32" y2="76.1049" stroke="#273566" stroke-width="2" stroke-dasharray="4 4"/>
<line x1="77.3203" y1="152.105" x2="77.3203" y2="192.105" stroke="#273566" stroke-width="2" stroke-dasharray="4 4"/>
<line x1="269.32" y1="152.105" x2="269.32" y2="192.105" stroke="#273566" stroke-width="2" stroke-dasharray="4 4"/>
<line x1="461.32" y1="152.105" x2="461.32" y2="192.105" stroke="#273566" stroke-width="2" stroke-dasharray="4 4"/>
<line x1="192.32" y1="269.105" x2="152.32" y2="269.105" stroke="#273566" stroke-width="2" stroke-dasharray="4 4"/>
<line x1="384.32" y1="269.105" x2="344.32" y2="269.105" stroke="#273566" stroke-width="2" stroke-dasharray="4 4"/>
</svg>
