<svg width="36" height="57" viewBox="0 0 36 57" fill="none" xmlns="http://www.w3.org/2000/svg">
<path d="M16.3048 0.900337C12.2251 1.33784 8.49538 3.10971 5.62975 5.9644C3.67194 7.93315 2.53444 9.6394 1.561 12.1003C0.784441 14.08 0.478191 15.6113 0.423504 17.8972C0.379754 19.5597 0.401629 19.9644 0.609441 20.9597C1.58288 25.7175 4.59069 31.2738 9.89538 38.1316C11.9407 40.7894 14.0188 43.1957 17.3657 46.816L17.9891 47.4832L19.0173 46.3894C26.4766 38.4707 32.2735 30.1472 34.4719 24.1863C35.2485 22.0644 35.5219 20.7628 35.5766 18.8707C35.6641 16.3003 35.2923 14.2003 34.3844 11.9582C32.0876 6.3144 27.2532 2.32221 21.3141 1.16284C20.1657 0.933151 17.3548 0.790962 16.3048 0.900337ZM20.0454 8.43628C23.0969 9.0269 25.7876 11.1925 27.1438 14.1347C27.8219 15.5894 27.986 16.4207 27.986 18.28C27.986 20.216 27.8001 21.08 27.0235 22.6769C25.6563 25.4878 23.0423 27.5113 19.9798 28.1347C18.7438 28.3753 16.436 28.2988 15.3094 27.9707C11.8641 26.9753 9.19538 24.2628 8.25475 20.7957C7.90475 19.5488 7.90475 17.0222 8.24382 15.7863C9.68757 10.5253 14.6969 7.40815 20.0454 8.43628Z" fill="#E05100"/>
<path d="M17.103 11.5645C15.1124 11.816 13.2202 13.0738 12.1702 14.8457C9.89517 18.6957 11.9842 23.7051 16.3264 24.8316C17.1795 25.0613 18.8202 25.0613 19.6733 24.8316C23.753 23.7816 25.9295 19.2207 24.1467 15.4473C22.867 12.7348 20.0561 11.1926 17.103 11.5645Z" fill="#E05100"/>
<path d="M8.50625 43.9285C4.95156 44.9019 2.55625 46.3894 1.68125 48.1722C1.36406 48.8176 1.32031 49.0035 1.32031 49.7801C1.33125 50.7863 1.62656 51.5847 2.32656 52.4379C3.42031 53.7722 6.00156 55.0738 8.97656 55.8066C11.9844 56.5394 14.2812 56.7801 18.1641 56.7691C20.7891 56.7691 21.6531 56.7254 23.1406 56.5285C30.7312 55.5113 35.0406 52.8754 34.6906 49.4629C34.4937 47.5597 32.8422 45.9191 29.9437 44.7379C28.8719 44.3004 26.4984 43.6004 26.0828 43.6004C25.9953 43.6004 25.1531 44.4754 24.2234 45.5363C23.3047 46.6082 21.5219 48.5113 20.2641 49.7801L18 52.0769L15.6156 49.6597C14.3141 48.3363 12.5312 46.4332 11.6562 45.4269C10.5625 44.1582 10.0047 43.6004 9.85156 43.6113C9.73125 43.6113 9.12969 43.7535 8.50625 43.9285Z" fill="#E05100"/>
</svg>
